<svg id="Слой_1" xmlns="http://www.w3.org/2000/svg" viewBox="0 0 835 400"><style>.st0{fill:none;stroke:#fff;stroke-miterlimit:10}.st1{fill:#fff}.st2{fill:#e5e6e5}.st3{fill:none;stroke:#fff;stroke-width:2;stroke-miterlimit:10}.st4,.st5{opacity:.8;enable-background:new}.st4{stroke:#fff;stroke-miterlimit:10;fill:none}.st5{fill:#ee3324}.st6{fill:#5d5c70}</style><path class="st0" d="M245.7 58.2l-1.4-7.3c-41.1 14.1-69.1 42.4-86.9 67.2-3-7.6-10.4-13-19-13-9 0-16.6 5.8-19.4 13.9-2.2-.5-4.6-.8-7-.8-16.3 0-29.5 13.2-29.5 29.5s13.2 29.5 29.5 29.5c10.2 0 19.2-5.2 24.5-13h48.7c3.7 3.5 8.6 5.6 14 5.6 11.3 0 20.5-9.2 20.5-20.5 0-8-4.6-15-11.3-18.3 3.3-24.8 12.5-56.8 37.3-72.8z"/><path class="st1" d="M731.3 68.9l-1.6-1.6v-.5c-.2-2.8-2.5-5-5.3-5.3h-.5l-1.8-1.8 1.6-1.6h.5c2.9-.1 5.3-2.5 5.5-5.5v-.5l1.6-1.6 1.8 1.8v.5c.2 2.8 2.5 5 5.3 5.3h.5l1.6 1.6-1.8 1.8h-.4c-2.6.3-4.8 2.4-5 5v.4l-2 2zm-3.9-9.1c1.8.8 3.2 2.3 4.1 4.1.8-1.8 2.3-3.2 4.1-4.1-1.8-.8-3.2-2.3-4.1-4.1-.9 1.9-2.3 3.3-4.1 4.1zM587.8 317.9H498l6.7-36h76.5l6.6 36zm-86.8-2.4h83.9l-5.7-31h-72.4l-5.8 31z"/><path class="st1" d="M591.3 331.6h-98c-4.1 0-7.4-3.3-7.4-7.4V323c0-4.1 3.3-7.4 7.4-7.4h98c4.1 0 7.4 3.3 7.4 7.4v1.2c0 4-3.3 7.4-7.4 7.4zm-98-13.7c-2.7 0-5 2.2-5 5v1.2c0 2.7 2.2 5 5 5h98c2.7 0 5-2.2 5-5v-1.2c0-2.7-2.2-5-5-5h-98zm-29.5-1.1v-4.2h-4.2v-4.2h4.2v-4.2h4.2v4.2h4.2v4.2H468v4.2h-4.2zM446.7 73.5c-2.4 0-4.3-1.9-4.3-4.3s1.9-4.3 4.3-4.3 4.3 1.9 4.3 4.3c.1 2.4-1.9 4.3-4.3 4.3zm0-6.2c-1 0-1.9.8-1.9 1.9 0 1 .8 1.9 1.9 1.9 1 0 1.9-.8 1.9-1.9s-.8-1.9-1.9-1.9zm-32.8-6.2c-4.1 0-7.4-3.3-7.4-7.4s3.3-7.4 7.4-7.4 7.4 3.3 7.4 7.4-3.3 7.4-7.4 7.4zm0-12.4c-2.7 0-5 2.2-5 5s2.2 5 5 5c2.7 0 5-2.2 5-5s-2.3-5-5-5zm225.8 3.7h55.8v3.7h-55.8v-3.7zm48.4-24.8h31v3.7h-31v-3.7zm-77 24.8h12.4v3.7h-12.4v-3.7zm-29.7 0h3.7v3.7h-3.7v-3.7zM131 365.1h3.7v3.7H131v-3.7zm645.8-117.9c-10.8 0-19.6-8.8-19.6-19.6S766 208 776.8 208s19.6 8.8 19.6 19.6c-.1 10.8-8.8 19.6-19.6 19.6zm0-36.6c-9.4 0-17.1 7.7-17.1 17.1s7.7 17.1 17.1 17.1c9.4 0 17.1-7.7 17.1-17.1s-7.7-17.1-17.1-17.1z"/><path class="st1" d="M774.9 208.7h1.2v37.2h-1.2v-37.2z"/><path class="st1" d="M757.5 228.6H796v1.2h-38.5v-1.2zm2.5-9.9h32.3v1.2H760v-1.2zm0 19.8h32.3v1.2H760v-1.2z"/><path class="st1" d="M783.1 244.3l-1.2-.3c.5-2 1.2-4.3 1.9-6.6 1.1-3.4 2.2-6.9 2.4-9.3.2-3.4-1.2-8.8-2.5-13.6-.3-1.1-.6-2.2-.8-3.2l1.2-.3c.2 1 .5 2.1.8 3.2 1.3 4.9 2.7 10.4 2.5 14-.1 2.6-1.3 6.2-2.4 9.7-.7 2.1-1.4 4.4-1.9 6.4zm-12.9.1c-.2-.4-4.4-10.7-4.4-16.3 0-5.9 4.4-16.7 4.6-17.2l1.1.5c0 .1-4.5 11.1-4.5 16.7 0 5.3 4.2 15.7 4.3 15.8l-1.1.5z"/><circle class="st1" cx="796.1" cy="192.9" r="5.3"/><circle class="st1" cx="772.5" cy="189.7" r="6.3"/><circle class="st1" cx="809.2" cy="212" r="4.2"/><circle class="st1" cx="807.6" cy="227.2" r="2.6"/><path class="st1" d="M410.1 155.4h64.5v6.2h-64.5v-6.2zm260.6-24.8h-74.4V112h74.4v18.6zm-73.2-1.3h72v-16.1h-72v16.1zM567.7 148H410.1v-34.7h157.6V148zm-156.3-1.3h155.1v-32.3H411.4v32.3zm186.1-9.9h21.1v6.2h-21.1v-6.2zm0 13.6h43.4v6.2h-43.4v-6.2zm0 12.4h59.6v6.2h-59.6v-6.2zm-117.9 22.4h21.1v6.2h-21.1v-6.2zm0 13.6H523v6.2h-43.4v-6.2zm0 12.4h59.6v6.2h-59.6v-6.2zm0-40.9h59.6v6.2h-59.6v-6.2zm117.9 6.2h43.4v6.2h-43.4v-6.2zm0 12.4h21.1v1.2s-2.5.3-4.1 1.9-1.9 3.1-1.9 3.1h-15.1v-6.2zm14.8 19.8h-14.8v-6.2h14.8v6.2zm0 12.5h-14.8V215h14.8v6.2zm.1 13.6h-14.9v-6.2h14.8l.1 6.2zm-145.8-14.9h-35l17.2-35 17.8 35z"/><path class="st1" d="M454.7 219.9h-46.2l22.8-46.2 23.4 46.2zm-44.2-1.2h42.2l-21.4-42.2-20.8 42.2zM521.3 51.2h-46.1c-5 0-8.6-8.4-8.6-13 0-2.8 1.6-9.9 4.7-12 .3-4.5 3.4-8.2 7.8-9.4 1.5-5 6.2-8.5 11.7-8.5 6.5 0 12 5.7 12.2 12.4.9-.3 1.8-.4 2.6-.4.5 0 1.1 0 1.7.1.6 0 1.2.1 1.8.1 5.7 0 9.7 8 10.5 13.2h1.5c4.7 0 8.6 3.9 8.6 8.7s-3.7 8.8-8.4 8.8zm-30.4-40.3c-4.6 0-8.5 3-9.5 7.3l-.2.8-.8.2c-3.9.8-6.6 4-6.6 7.9v.9l-.8.3c-1.9.7-3.9 7-3.9 10.1 0 3.8 3.1 10.5 6.1 10.5h46.1c3.4 0 6.1-2.8 6.1-6.2s-2.7-6.2-6.1-6.2h-3.8l-.1-1.2c-.3-4.7-4.1-12.1-8.2-12.1-.7 0-1.3 0-1.9-.1-.5 0-1.1-.1-1.6-.1-1.5 0-2.3.3-2.9 1.1l-2.6 3.2.3-4.1v-1.9c.2-5.7-4.3-10.4-9.6-10.4z"/><path class="st1" d="M485 23c-.8-3.4-5-4.1-5-4.1l.4-2.4c.2 0 5.8 1 7 5.9l-2.4.6zm12.1-4.1c-.9-3.8-5.5-4.6-5.5-4.6l.2-1.2c.2 0 5.4 1 6.5 5.5l-1.2.3zm28.7 3.6l-2.4-.5c.3-1.3 0-2.7-.8-3.8-.8-1.1-1.9-1.9-3.3-2.2l.5-2.4c2 .4 3.7 1.5 4.9 3.2 1 1.7 1.5 3.7 1.1 5.7zm11.4-.7l-2.4-.5c1.2-6.3-2.9-12.5-9.3-13.7l.5-2.4c7.7 1.4 12.7 8.9 11.2 16.6zM331.3 216.2c-2.5 0-4.9-.4-7.3-1.1l-1.2-.4.9-2.4-1.8-.7-1.3 2.1-1.1-.6c-3.8-2.1-7-5.2-9.1-9l-.6-1.1 2.7-1.6-.9-1.7-2.8 1-.4-1.2c-.8-2.4-1.2-5-1.2-7.5 0-2.2.3-4.3.9-6.4l.3-1.2 3.4.9.6-1.9-3-1.5.6-1.1c2.1-3.9 5.1-7.2 8.9-9.5l1.1-.7 1.7 3.1 1.7-.9-1.1-3.3 1.2-.4c5.1-1.8 10.8-1.8 15.9 0l1.2.4-1.3 3.9 1.7.9 2.1-3.7 1.1.7c3.9 2.4 7 5.9 9 10l.5 1.1-3.4 1.7.6 1.9 3.8-1 .3 1.2c.5 1.9.7 3.8.7 5.7 0 2.6-.4 5.1-1.2 7.5l-.4 1.2-2.9-1-.9 1.7 2.8 1.6-.6 1.1c-2.1 3.6-5.1 6.6-8.6 8.7l-1.1.6-1.1-1.9-1.8.7.8 2.2-1.2.4c-2.8 1.1-5.5 1.5-8.2 1.5zm-5.3-3.1c3.6.9 7.5.9 11.2-.1l-.7-2.1 6.1-2.3.9 1.5c2.4-1.6 4.5-3.7 6.1-6.1l-2.7-1.6 3.1-5.7 2.5.9c.5-1.8.7-3.7.7-5.6 0-1.3-.1-2.6-.4-3.9l-3.6 1-1.8-6.2 3-1.5c-1.6-2.8-3.8-5.3-6.4-7.1l-2 3.5-5.7-3.1 1.2-3.6c-3.9-1.1-8.1-1.1-12 0l1 2.9-5.7 3.1-1.7-2.9c-2.6 1.8-4.7 4.1-6.3 6.8l2.6 1.3-1.8 6.2-3.3-.9c-.3 1.5-.5 3-.5 4.5 0 1.9.2 3.7.7 5.5l2.4-.8 3.1 5.7-2.6 1.5c1.7 2.6 3.9 4.8 6.5 6.4l1.1-1.8 6.1 2.3-1.1 2.2zm5.3-8.7c-6.8 0-12.4-5.5-12.4-12.4 0-6.8 5.5-12.4 12.4-12.4 6.8 0 12.4 5.5 12.4 12.4 0 6.8-5.5 12.4-12.4 12.4zm0-22.3c-5.4 0-9.9 4.4-9.9 9.9 0 5.4 4.4 9.9 9.9 9.9 5.4 0 9.9-4.4 9.9-9.9 0-5.4-4.4-9.9-9.9-9.9z"/><path class="st1" d="M331.3 206.9c-8.2 0-14.9-6.7-14.9-14.9s6.7-14.9 14.9-14.9 14.9 6.7 14.9 14.9-6.6 14.9-14.9 14.9zm0-28.5c-7.5 0-13.6 6.1-13.6 13.6s6.1 13.6 13.6 13.6 13.6-6.1 13.6-13.6-6-13.6-13.6-13.6zm403.9-24.2h39.7v3.7h-39.7v-3.7zm-23.6-13.7h39.7v3.7h-39.7v-3.7zm70.8 13.7h6.2v3.7h-6.2v-3.7zM150.8 363.8h12.4v3.7h-12.4v-3.7zm203.5-21.1h3.7v3.7h-3.7v-3.7zm16.1 0h229.5v3.7H370.4v-3.7zm326.3 39.8h95.5v3.7h-95.5v-3.7zM500.1 76.6c-1 0-1.9-.8-1.9-1.9V62.3c0-1 .8-1.9 1.9-1.9 1 0 1.9.8 1.9 1.9v12.4c-.1 1.1-.9 1.9-1.9 1.9z"/><path class="st1" d="M505.7 68.1c-.4 0-.9-.2-1.2-.5l-5.6-5c-.8-.7-.8-1.9-.2-2.6.7-.8 1.9-.8 2.6-.2l5.6 5c.8.7.8 1.9.2 2.6-.4.5-.9.7-1.4.7z"/><path class="st1" d="M494.5 68.1c-.5 0-1-.2-1.3-.5-.7-.7-.7-1.9 0-2.6l5.6-5.6c.7-.7 1.9-.7 2.6 0s.7 1.9 0 2.6l-5.6 5.6c-.3.4-.8.5-1.3.5zm219 116.5c-1 0-1.9-.8-1.9-1.9v-12.4c0-1 .8-1.9 1.9-1.9s1.9.8 1.9 1.9v12.4c0 1-.9 1.9-1.9 1.9z"/><path class="st1" d="M713.6 185.1c-.4 0-.9-.2-1.2-.5l-5.6-5c-.8-.7-.8-1.9-.2-2.6.7-.8 1.9-.8 2.6-.2l5.6 5c.8.7.8 1.9.2 2.6-.4.5-.9.7-1.4.7z"/><path class="st1" d="M713.6 185.7c-.5 0-1-.2-1.3-.5-.7-.7-.7-1.9 0-2.6l5.6-5.6c.7-.7 1.9-.7 2.6 0 .7.7.7 1.9 0 2.6l-5.6 5.6c-.4.3-.8.5-1.3.5zm112.2 196.8h3.7v3.7h-3.7v-3.7zm-23.6 0h12.4v3.7h-12.4v-3.7zM497.6 362c-2.1 0-3.7-1.7-3.7-3.7 0-2.1 1.7-3.7 3.7-3.7 2.1 0 3.7 1.7 3.7 3.7s-1.6 3.7-3.7 3.7zm0-6.2c-1.4 0-2.5 1.1-2.5 2.5s1.1 2.5 2.5 2.5 2.5-1.1 2.5-2.5-1.1-2.5-2.5-2.5zm-118.5-44.1c-4.1 0-7.4-3.3-7.4-7.4s3.3-7.4 7.4-7.4 7.4 3.3 7.4 7.4-3.3 7.4-7.4 7.4zm0-12.4c-2.7 0-5 2.2-5 5s2.2 5 5 5c2.7 0 5-2.2 5-5s-2.2-5-5-5zm-48.4-145.1h39.7v3.7h-39.7v-3.7zM95 190.1h203.5v3.7H95v-3.7zm188.4 35.2l-1.6-1.6v-.5c-.2-2.8-2.5-5-5.3-5.3h-.5l-1.8-1.8 1.6-1.6h.5c2.9-.1 5.3-2.5 5.5-5.5v-.5l1.6-1.6 1.8 1.8v.5c.2 2.8 2.5 5 5.3 5.3h.5l1.6 1.6-1.8 1.8h-.4c-2.6.3-4.8 2.4-5 5v.4l-2 2zm-3.9-9.1c1.8.8 3.2 2.3 4.1 4.1.8-1.8 2.3-3.2 4.1-4.1-1.8-.8-3.2-2.3-4.1-4.1-.9 1.8-2.3 3.2-4.1 4.1zm8.7-44.7h-7.4v-6.7c-.3-.1-.6-.3-1-.5l-4.2 4.6-5.3-5.1 4.7-4.6c0-.1-.1-.1-.1-.2s-.1-.2-.1-.3h-7.5v-7.4h7.3c.1-.4.2-.8.4-1.2l-4.8-5.1 5.1-5.2 4.4 4.6c.3-.2.6-.4 1-.5v-6h7.4v6c.4.1.8.3 1.2.4l4.7-4.3 5.2 5.3-4.2 4.4c.2.4.4.9.6 1.7h5.3v7.4h-5.4c-.2.3-.3.6-.5.9v.1l4.2 3.9-5.3 5.2-4.5-4.4c-.3.1-.7.3-1.2.4v6.6zm-6-1.3h4.7v-6.3l.5-.1c.3-.1 1.3-.3 1.9-.6l.4-.2 4.3 4.1 3.4-3.3-4-3.7.3-.5.3-.6c.2-.4.4-.7.6-1.1l.2-.5h5v-4.7h-5l-.1-.6c-.2-1.1-.4-1.5-.7-2l-.4-.6 4-4.2-3.4-3.4-4.4 4.1-.4-.2c-.4-.2-1.2-.5-1.9-.7l-.5-.1v-5.7h-4.7v5.6l-.5.2c-.4.1-.8.3-1.2.6-.1.1-.3.2-.4.3l-.5.3-4.2-4.3-3.2 3.3 4.5 4.8-.2.4c-.2.4-.4 1.1-.5 1.6l-.2.7h-7v4.7h6.5c.6 0 .8.5 1 1.1.1.2.2.4.2.6l.2.4-4.4 4.3 3.3 3.2 4-4.4.7.4c.5.3.9.5 1.4.7l.5.2-.1 6.2zm3.3-10.7c-3 0-5.4-2.4-5.4-5.4s2.4-5.4 5.4-5.4 5.4 2.4 5.4 5.4-2.4 5.4-5.4 5.4zm0-9.4c-2.2 0-4 1.8-4 4s1.8 4 4 4 4-1.8 4-4-1.7-4-4-4zm176.9 236.1h-90.7c-2.7 0-5-2-5-4.5v-12c0-2.5 2.2-4.5 5-4.5h90.8l39.2 9.8-39.3 11.2zm-90.7-18.6c-1.4 0-2.5.9-2.5 2v12c0 1.1 1.1 2 2.5 2h90.4l30.1-8.6-30.1-7.5h-90.4v.1z"/><path class="st1" d="M169.5 236v48.4h16.1V236h-16.1zm13.6 46h-11.2v-43.4h11.2V282zM547.9 37.5h-1.2c-1.1 0-1.9.8-1.9 1.9 0 1.1.9 1.9 1.9 1.9h1.2c1 0 1.9-.8 1.9-1.9 0-1.1-.9-1.9-1.9-1.9zm12.9 0h-1.2c-1.1 0-1.9.8-1.9 1.9 0 1.1.9 1.9 1.9 1.9h1.2c1 0 1.9-.8 1.9-1.9s-.9-1.9-1.9-1.9zm12.9 0h-1.2c-1.1 0-1.9.8-1.9 1.9 0 1.1.9 1.9 1.9 1.9h1.2c1.1 0 1.9-.8 1.9-1.9 0-1.1-.9-1.9-1.9-1.9zm13 0h-1.2c-1.1 0-1.9.8-1.9 1.9 0 1.1.9 1.9 1.9 1.9h1.2c1 0 1.9-.8 1.9-1.9 0-1.1-.9-1.9-1.9-1.9zm12.9 0h-1.2c-1.1 0-1.9.8-1.9 1.9 0 1.1.9 1.9 1.9 1.9h1.2c1 0 1.9-.8 1.9-1.9s-.9-1.9-1.9-1.9zm12.9 0h-1.2c-1.1 0-1.9.8-1.9 1.9 0 1.1.9 1.9 1.9 1.9h1.2c1.1 0 1.9-.8 1.9-1.9s-.9-1.9-1.9-1.9zm13 0h-1.2c-1.1 0-1.9.8-1.9 1.9 0 1.1.9 1.9 1.9 1.9h1.2c1 0 1.9-.8 1.9-1.9s-.9-1.9-1.9-1.9zm12.9 0h-1.2c-1.1 0-1.9.8-1.9 1.9 0 1.1.9 1.9 1.9 1.9h1.2c1.1 0 1.9-.8 1.9-1.9 0-1.1-.9-1.9-1.9-1.9zM245.1 383.6h-1.2c-1.1 0-1.9.9-1.9 1.9 0 1.1.9 1.9 1.9 1.9h1.2c1 0 1.9-.8 1.9-1.9s-.9-1.9-1.9-1.9zm11.1 0H255c-1.1 0-1.9.9-1.9 1.9 0 1.1.9 1.9 1.9 1.9h1.3c1 0 1.8-.8 1.8-1.9s-.9-1.9-1.9-1.9zm11.2 0h-1.2c-1.1 0-1.9.9-1.9 1.9 0 1.1.9 1.9 1.9 1.9h1.2c1.1 0 1.9-.8 1.9-1.9s-.9-1.9-1.9-1.9zm11.2 0h-1.2c-1.1 0-1.9.9-1.9 1.9 0 1.1.9 1.9 1.9 1.9h1.2c1 0 1.9-.8 1.9-1.9s-.9-1.9-1.9-1.9zm11.2 0h-1.2c-1.1 0-1.9.9-1.9 1.9 0 1.1.9 1.9 1.9 1.9h1.2c1 0 1.8-.8 1.9-1.9 0-1.1-.9-1.9-1.9-1.9zm11.1 0h-1.2c-1.1 0-1.9.9-1.9 1.9 0 1.1.9 1.9 1.9 1.9h1.2c1.1 0 1.9-.8 1.9-1.9s-.9-1.9-1.9-1.9zm11.2 0h-1.2c-1.1 0-1.9.9-1.9 1.9 0 1.1.9 1.9 1.9 1.9h1.2c1 0 1.9-.8 1.9-1.9s-.9-1.9-1.9-1.9zm11.1 0H322c-1.1 0-1.9.9-1.9 1.9 0 1.1.9 1.9 1.9 1.9h1.3c1 0 1.8-.8 1.8-1.9s-.9-1.9-1.9-1.9zm11.2 0h-1.2c-1.1 0-1.9.9-1.9 1.9 0 1.1.9 1.9 1.9 1.9h1.2c1.1 0 1.9-.8 1.9-1.9s-.9-1.9-1.9-1.9zm11.2 0h-1.2c-1.1 0-1.9.9-1.9 1.9 0 1.1.9 1.9 1.9 1.9h1.2c1 0 1.9-.8 1.9-1.9s-.9-1.9-1.9-1.9zm-172.4-19.8v3.7h136.5v-3.7H173.2zm299 7.8v7.2l13.6-3.8-13.6-3.4zm-76.7-135.5c-1.1 0-1.9-.9-1.9-1.9V99c0-1.1.9-1.9 1.9-1.9V97h286.6c1.1 0 1.9.9 1.9 1.9V190h1.2V98.9c0-1.7-1.4-3.1-3.1-3.1H395.5c-1.7 0-3.1 1.4-3.1 3.1v135.3c0 1.7 1.4 3.1 3.1 3.1h216.8v-1.2"/><path class="st1" d="M171.9 286.9H21.8v-53.4h150.1v53.4zm-147.6-2.5h145.2V236H24.3v48.4z"/><path class="st1" d="M26.7 260.9h140.2V282H26.7v-21.1zm127-10.1c-2.5 0-4.5-2-4.5-4.5s2-4.5 4.5-4.5 4.5 2 4.5 4.5-2 4.5-4.5 4.5zm0-6.5c-1.1 0-2 .9-2 2s.9 2 2 2 2-.9 2-2-.9-2-2-2zm65.4 46l-36-11.1v-37.9l36-11.1v60.1zm-33.5-12.9l31 9.5v-53.2l-31 9.5v34.2zm134-15.3H265v-12.4h54.6v2.5h-52.2v7.4h52.2v2.5z"/><path class="st1" d="M340.9 264.6h-19c-1.9 0-3.6-1.8-3.6-3.8v-4.9h2.5v4.9c0 .6.6 1.3 1.1 1.3h19c.5 0 1-.7 1-1.3v-11s-.2-.1-1-.1h-22.5c0-1.2.5-2.5 3.5-2.5h19c3.1 0 3.5 1.7 3.5 2.8v10.8c0 1.8-1.5 3.8-3.5 3.8zm-78.1 9.9h-7.3c-2.6 0-4.2-2.5-4.2-4.7v-.2H201c-6.6 0-11.7-5-11.7-11.3V254c0-6.5 5.3-11.8 11.7-11.8h50.3c.6-1.7 2.1-3.7 4.2-3.7h7.3c2.6 0 4.6 2.8 4.6 5v26.2c0 2.5-2.2 4.8-4.6 4.8zM201 244.7c-5.1 0-9.2 4.2-9.2 9.3v4.2c0 5 4.1 8.8 9.2 8.8h52.8v2.7c0 1.1.7 2.3 1.7 2.3h7.3c1 0 2.1-1.2 2.1-2.3v-26.2c0-1.1-1.2-2.5-2.1-2.5h-7.3c-.9 0-1.7 1.8-1.7 2.5v1.2H201z"/><path class="st2" d="M251.3 258.4h2.5v9.9h-2.5v-9.9z"/><path class="st1" d="M9.7 221.2V217H5.5v-4.2h4.2v-4.2h4.2v4.2h4.2v4.2h-4.2v4.2H9.7zm97.1 116.6c-2.4 0-4.3-1.9-4.3-4.3s1.9-4.3 4.3-4.3 4.3 1.9 4.3 4.3c0 2.3-1.9 4.3-4.3 4.3zm0-6.2c-1 0-1.9.8-1.9 1.9s.8 1.9 1.9 1.9c1 0 1.9-.8 1.9-1.9s-.9-1.9-1.9-1.9zM29.2 213.7c-4.1 0-7.4-3.3-7.4-7.4 0-4.1 3.3-7.4 7.4-7.4s7.4 3.3 7.4 7.4c.1 4.1-3.3 7.4-7.4 7.4zm0-12.4c-2.7 0-5 2.2-5 5 0 2.7 2.2 5 5 5 2.7 0 5-2.2 5-5s-2.2-5-5-5zm136.5 125.3c-4.1 0-7.4-3.3-7.4-7.4s3.3-7.4 7.4-7.4c4.1 0 7.4 3.3 7.4 7.4s-3.3 7.4-7.4 7.4zm0-12.4c-2.7 0-5 2.2-5 5s2.2 5 5 5c2.7 0 5-2.2 5-5s-2.3-5-5-5zM78.9 203.8h3.7v3.7h-3.7v-3.7zm16.1 0h50.9v3.7H95v-3.7zm192.3 120.3h55.8v3.7h-55.8v-3.7zm-28.5 0h12.4v3.7h-12.4v-3.7zm-29.8 0h3.7v3.7H229v-3.7zm57.1-11.1h-1.2c-1 0-1.9-.8-1.9-1.9 0-1 .8-1.9 1.9-1.9h1.2c1 0 1.9.8 1.9 1.9-.1 1-.9 1.9-1.9 1.9zm-13 0h-1.2c-1 0-1.9-.8-1.9-1.9 0-1 .8-1.9 1.9-1.9h1.2c1 0 1.9.8 1.9 1.9 0 1-.9 1.9-1.9 1.9zm-12.9 0H259c-1 0-1.9-.8-1.9-1.9 0-1 .8-1.9 1.9-1.9h1.2c1 0 1.9.8 1.9 1.9-.1 1-.9 1.9-1.9 1.9zm-13 0H246c-1 0-1.9-.8-1.9-1.9 0-1 .8-1.9 1.9-1.9h1.2c1 0 1.9.8 1.9 1.9 0 1-.8 1.9-1.9 1.9zm-12.9 0h-1.2c-1 0-1.9-.8-1.9-1.9 0-1 .8-1.9 1.9-1.9h1.2c1 0 1.9.8 1.9 1.9 0 1-.9 1.9-1.9 1.9zm-12.9 0h-1.2c-1 0-1.9-.8-1.9-1.9 0-1 .8-1.9 1.9-1.9h1.2c1 0 1.9.8 1.9 1.9-.1 1-.9 1.9-1.9 1.9zm329.3 52.1H545c-1.8 0-3.3-1.5-3.3-3.3V356c0-1.8 1.5-3.3 3.3-3.3h5.7c1.8 0 3.3 1.5 3.3 3.3v5.7c.1 1.9-1.4 3.4-3.3 3.4zm-5.7-9.9c-.5 0-.9.4-.9.9v5.7c0 .5.4.9.9.9h5.7c.5 0 .9-.4.9-.9V356c0-.5-.4-.9-.9-.9H545v.1zm5.7 24.8H545c-1.8 0-3.3-1.5-3.3-3.3V371c0-1.8 1.5-3.3 3.3-3.3h5.7c1.8 0 3.3 1.5 3.3 3.3v5.7c.1 1.8-1.4 3.3-3.3 3.3zm-5.7-10c-.5 0-.9.4-.9.9v5.7c0 .5.4.9.9.9h5.7c.5 0 .9-.4.9-.9v-5.7c0-.5-.4-.9-.9-.9H545zm5.7 24.9H545c-1.8 0-3.3-1.5-3.3-3.3v-5.7c0-1.8 1.5-3.3 3.3-3.3h5.7c1.8 0 3.3 1.5 3.3 3.3v5.7c.1 1.8-1.4 3.3-3.3 3.3zm-5.7-10c-.5 0-.9.4-.9.9v5.7c0 .5.4.9.9.9h5.7c.5 0 .9-.4.9-.9v-5.7c0-.5-.4-.9-.9-.9H545zm14-22.3h34.7v2.5H559v-2.5zm0 13.6h22.3v2.5H559v-2.5zm0 13.7h34.7v2.5H559v-2.5z"/><path class="st1" d="M542 363.3l8.7-8.7 1.8 1.8-8.7 8.7-1.8-1.8zM755.7 93.6l-10.8-4.8v-1.6l10.8-5.4v2.6l-7.5 3.5 7.5 3.1v2.6zm11.2-13.7L761 95.8h-3l5.9-15.9h3zm2.2 11.1l7.5-3.1-7.5-3.5v-2.6l10.8 5.4v1.6l-10.8 4.8V91zM461 365.1h2.5v18.6H461v-18.6zm-70.7 12.4h62v2.5h-62v-2.5zm-7.5-12.4h2.5V385h-2.5v-19.9zM612.3 251H379.1v-2.5h233.2v2.5z"/><path class="st1" d="M696.8 190.1V88.6c0-2.1-1.7-3.9-3.9-3.9H385.5c-2.1 0-3.9 1.7-3.9 3.9v189.5c0 2.1 1.7 3.9 3.9 3.9h226.9v2.4H385.5c-3.5 0-6.4-2.9-6.4-6.4V88.6c0-3.5 2.9-6.4 6.4-6.4h307.4c3.5 0 6.4 2.9 6.4 6.4V190"/><circle class="st3" cx="745.8" cy="362" r="3.1"/><path class="st4" d="M710.1 349h-90.8c-3.8 0-6.9-3-6.9-6.8V196.9c0-3.7 3.1-6.8 6.9-6.8h77.5m2.5 0h26.5c3.8 0 6.9 3 6.9 6.8v68.5"/><path class="st5" d="M696.8 190.1h2.5"/><path class="st1" d="M721.5 195.1H626c-4.1 0-7.4 3.3-7.4 7.4v134c0 4.1 3.3 7.4 7.4 7.4h84.1v-2.4H626c-2.8 0-5-2.3-5-5v-134c0-2.8 2.3-5 5-5h95.5c2.8 0 5 2.3 5 5v62.8h2.4v-62.8c0-4.1-3.3-7.4-7.4-7.4z"/><path class="st1" d="M675.6 324.1c-3.4 0-6.2 2.8-6.2 6.2 0 3.4 2.8 6.2 6.2 6.2 3.5 0 6.2-2.8 6.2-6.2 0-3.4-2.8-6.2-6.2-6.2zm0 9.9c-2 0-3.7-1.6-3.7-3.7 0-2 1.6-3.7 3.7-3.7s3.8 1.7 3.7 3.7c0 2-1.6 3.7-3.7 3.7zm-47.1-127.7v112.9h81.2v-1.3h-80V207.5h86.9V266h1.2v-59.7h-89.3z"/><path class="st1" d="M637.2 218.7h59.6v6.2h-59.6v-6.2zm0 13.6h36v6.2h-36v-6.2zm0 50.9h59.6v6.2h-59.6v-6.2zm0 13.6h36v6.2h-36v-6.2zm71.9-18.6h-73.2v-33.5h73.2v33.5zm-71.9-1.2h70.7v-31h-70.7v31z"/><path class="st0" d="M779.9 368.9c0 4.1-3.4 7.4-7.7 7.4h-54.1c-4.2 0-7.7-3.3-7.7-7.4v-95.7c0-4.1 3.4-7.4 7.7-7.4h54.1c4.2 0 7.7 3.3 7.7 7.4v95.7z"/><path class="st1" d="M769.4 373.8h-47.3c-4.4 0-8-3.6-8-8v-88.3c0-4.4 3.6-8 8-8h47.3c4.4 0 8 3.6 8 8v88.3c0 4.4-3.6 8-8 8zM722.1 272c-3 0-5.5 2.5-5.5 5.5v88.3c0 3 2.5 5.5 5.5 5.5h47.3c3 0 5.5-2.5 5.5-5.5v-88.3c0-3-2.5-5.5-5.5-5.5h-47.3z"/><path class="st1" d="M717.8 288.2v-8.7c0-3.4 2.8-6.2 6.2-6.2h43.4c3.4 0 6.2 2.8 6.2 6.2v8.7h-55.8zm0 67v8.7c0 3.4 2.8 6.2 6.2 6.2h43.4c3.4 0 6.2-2.8 6.2-6.2v-8.7h-55.8z"/><path class="st1" d="M750.3 284.4h-9.9c-1 0-1.9-.8-1.9-1.9 0-1 .8-1.9 1.9-1.9h9.9c1 0 1.9.8 1.9 1.9s-.8 1.9-1.9 1.9z"/><circle class="st1" cx="756.9" cy="281.3" r="1.9"/><path class="st1" d="M722.8 296.8h32.3v3.7h-32.3v-3.7zm0 8.7h19.9v2.5h-19.9v-2.5zm0 27.3h32.3v3.7h-32.3v-3.7zm0 7.5h19.9v3.7h-19.9v-3.7zm39.7-10h-40.9v-18.6h40.9v18.6zm-39.7-1.2h38.5V313h-38.5v16.1zm-36.5-211.4c-3.6 0-7.1-1.4-9.6-4-2.6-2.6-4-6-4-9.6s1.4-7.1 4-9.6c2.6-2.6 6-4 9.6-4s7.1 1.4 9.6 4 4 6 4 9.6-1.4 7.1-4 9.6-6 4-9.6 4zm0-24.8c-3 0-5.8 1.2-7.9 3.3-2.1 2.1-3.3 4.9-3.3 7.9s1.2 5.8 3.3 7.9 4.9 3.3 7.9 3.3 5.8-1.2 7.9-3.3c2.1-2.1 3.3-4.9 3.3-7.9s-1.2-5.8-3.3-7.9-4.9-3.3-7.9-3.3z"/><path class="st1" d="M710.5 132.2c-.8 0-1.6-.3-2.2-.9l-14.9-14.9c-1.2-1.2-1.2-3.2 0-4.4 1.2-1.2 3.2-1.2 4.4 0l14.9 14.9c1.2 1.2 1.2 3.2 0 4.4-.6.5-1.4.9-2.2.9zM690.7 99c-1.2-1.2-2.8-1.8-4.4-1.8s-3.2.7-4.4 1.8l-1.8-1.8c1.7-1.7 3.8-2.6 6.2-2.6s4.5.9 6.2 2.6l-1.8 1.8zM260.2 243.5H255c-1.2 0-2.2 2.5-2.2 3.7h-51.5c-4.1 0-7 3.1-7 7.2v3c0 4.2 2.9 7.1 7 7.1h52.5v1.2c0 1.3 0 2.5 1.2 2.5h5.2c1.2 0 2.3-1.3 2.3-2.5v-18.9c0-1.2-1.1-3.3-2.3-3.3z"/><path class="st1" d="M227.3 287.2c-2 0-3.7-.9-4.6-2.5l-6.5-11.8c-1.4-2.6-.1-6.2 2.9-7.9 1.1-.7 2.4-1 3.6-1 2 0 3.7.9 4.6 2.5l6.5 11.8c1.4 2.6.1 6.2-2.9 7.9-1.1.6-2.4 1-3.6 1zm-4.6-20.8c-.8 0-1.6.2-2.4.7-1.9 1.1-2.8 3.2-2 4.6l6.5 11.8c.4.8 1.3 1.2 2.4 1.2.8 0 1.6-.2 2.4-.7 1.9-1.1 2.8-3.2 2-4.6l-6.5-11.8c-.4-.8-1.3-1.2-2.4-1.2z"/><path class="st2" d="M230.3 285.1c-2.5 1.4-5.4 1-6.5-1l-6.5-11.8c-1.1-2 0-4.8 2.5-6.3 2.5-1.4 5.4-1 6.5 1l6.5 11.8c1 2-.1 4.8-2.5 6.3z"/><path class="st2" d="M221.3 290.3c-2.5 1.4-5.4 1-6.5-1l-6.5-11.8c-1.1-2 0-4.8 2.5-6.3 2.5-1.4 5.4-1 6.5 1l6.5 11.8c1.1 2.1 0 4.9-2.5 6.3zm8.4-32.3c-3.3 1.9-7.2 1.3-8.6-1.4l-8.7-15.8c-1.5-2.7 0-6.4 3.3-8.3 3.3-1.9 7.2-1.3 8.6 1.4l8.7 15.8c1.5 2.7 0 6.4-3.3 8.3zm18.4 16.6c-2.5 1.4-5.4 1-6.5-1l-6.5-11.8c-1.1-2 0-4.8 2.5-6.3 2.5-1.4 5.4-1 6.5 1l6.5 11.8c1.1 2 0 4.8-2.5 6.3z"/><path class="st2" d="M239.2 279.8c-2.5 1.4-5.4 1-6.5-1l-6.5-11.8c-1.1-2 0-4.8 2.5-6.3 2.5-1.4 5.4-1 6.5 1l6.5 11.8c1.1 2.1 0 4.9-2.5 6.3z"/><path class="st1" d="M218.3 292.4c-2 0-3.7-.9-4.6-2.5l-6.5-11.8c-1.4-2.6-.1-6.2 2.9-7.9 1.1-.7 2.4-1 3.6-1 2 0 3.7.9 4.6 2.5l6.5 11.8c1.4 2.6.1 6.2-2.9 7.9-1.1.7-2.3 1-3.6 1zm-4.5-20.8c-.8 0-1.6.2-2.4.7-1.9 1.1-2.8 3.2-2 4.6l6.5 11.8c.4.8 1.3 1.2 2.4 1.2.8 0 1.6-.2 2.4-.7 1.9-1.1 2.8-3.2 2-4.6l-6.5-11.8c-.5-.7-1.3-1.2-2.4-1.2zm11.9-11.2c-.7 0-1.4-.1-2-.3-1.6-.5-3-1.5-3.7-2.9l-6.7-12.1 2.2-1.2 6.7 12.1c.6 1 1.5 1.5 2.2 1.7 1.5.4 3.2.1 4.7-.8 2.7-1.6 4-4.6 2.8-6.7l-8.7-15.8c-.6-1-1.5-1.5-2.2-1.7-1.5-.4-3.2-.1-4.7.8l-.3.1-5.2 1.6-.7-2.4 5.1-1.5c2.1-1.2 4.4-1.5 6.5-1 1.6.5 3 1.5 3.7 2.9l8.7 15.8c1.8 3.3.1 7.8-3.7 10-1.5 1-3.1 1.4-4.7 1.4zm19.5 16.3c-2 0-3.7-.9-4.6-2.5l-6.5-11.8c-1.4-2.6-.1-6.2 2.9-7.9 1.1-.7 2.4-1 3.6-1 2 0 3.7.9 4.6 2.5l6.5 11.8c1.4 2.6.1 6.2-2.9 7.9-1.2.6-2.4 1-3.6 1zm-4.6-20.8c-.8 0-1.6.2-2.4.7-1.9 1.1-2.8 3.2-2 4.6l6.5 11.8c.4.8 1.3 1.2 2.4 1.2.8 0 1.6-.2 2.4-.7 1.9-1.1 2.8-3.2 2-4.6l-6.5-11.8c-.5-.8-1.3-1.2-2.4-1.2z"/><path class="st1" d="M236.2 281.9c-2 0-3.7-.9-4.6-2.5l-6.5-11.8c-1.4-2.6-.1-6.2 2.9-7.9 1.1-.7 2.4-1 3.6-1 2 0 3.7.9 4.6 2.5l6.5 11.8c1.4 2.6.1 6.2-2.9 7.9-1.1.7-2.4 1-3.6 1zm-4.6-20.8c-.8 0-1.6.2-2.4.7-1.9 1.1-2.8 3.2-2 4.6l6.5 11.8c.4.8 1.3 1.2 2.4 1.2.8 0 1.6-.2 2.4-.7 1.9-1.1 2.8-3.2 2-4.6l-6.5-11.8c-.4-.7-1.3-1.2-2.4-1.2zM248.2 40s-7.5-5.8-16.3 3.6c1.9-5.4 11.7-17.8 22-13.9 6.5 2.4-5.7 10.3-5.7 10.3z"/><path class="st6" d="M229.5 47.6l1.5-4.3c1.3-3.8 6.3-10.8 12.8-13.8 3.6-1.7 7.1-1.9 10.5-.7 1.1.4 1.9 1.1 2.3 1.9 1.7 3.8-6.2 9.1-7.8 10.1l-.6.4-.5-.4c-.3-.2-7-5.1-15 3.5l-3.2 3.3zm25.3-16.2c-.2-.3-.6-.6-1.2-.9-2.9-1.1-5.9-.9-9 .6-3.8 1.8-7.2 5.2-9.4 8.4 6.2-4 11.3-1.7 13-.7 3.3-2.2 7.3-5.8 6.6-7.4z"/><path class="st1" d="M255.9 56.5s-.4 9.5-13.3 10.1c5.3 2 21.1 2.6 24.8-7.8 2.3-6.6-11.5-2.3-11.5-2.3z"/><path class="st6" d="M238 65.9l4.6-.2c11.9-.6 12.4-8.8 12.4-9.2v-.7l.6-.2c1.8-.6 11-3.2 12.8.6.4.8.4 1.8-.1 2.9-1.2 3.4-3.6 5.9-7.3 7.6-6.5 3-15.1 2.2-18.8.8l-4.2-1.6zm18.7-8.7c-.3 1.9-1.9 7.4-8.9 9.5 3.8.3 8.6 0 12.4-1.8 3.1-1.4 5.2-3.6 6.3-6.5.2-.6.3-1.2.1-1.5-.7-1.5-6-.8-9.9.3z"/><path class="st1" d="M295.5 28.3s-18.2-7.8-40.4 3.6c-5.8 3-9.9 8.7-11.9 12.1-.6 0-1.2.1-1.8.4-1.4.7-2.1 1.8-1.6 2.9l5.2 11.2c.5 1.1 1.8 1.3 3.2.6.6-.3 1.2-.7 1.6-1.2 4.4.3 12.5.5 16.9-1.2 22.6-9 28.8-28.4 28.8-28.4z"/><path class="st6" d="M244 59l-5.2-11.2c-.7-1.6.1-3.3 2.1-4.2.6-.3 1.1-.4 1.7-.5 2.1-3.4 6.2-9 12.1-12 22.4-11.5 40.5-4 41.2-3.7l.8.3-.3.8c-.1.2-6.5 20-29.4 29.1-4.4 1.8-12.3 1.6-16.9 1.3-.4.4-1 .8-1.6 1.1-2 1-3.8.6-4.5-1zm50.3-30.2c-3.8-1.3-19.9-5.7-38.8 3.9-5.7 2.9-9.7 8.6-11.6 11.7l-.3.5h-.5c-.4 0-1 .1-1.4.3s-1.6.8-1.2 1.6l5.2 11.2c.4.8 1.5.4 2 .2s1-.6 1.3-.9l.3-.4h.5c4.4.3 12.3.5 16.5-1.1 19.3-7.6 26.5-23.2 28-27z"/><path class="st6" d="M249.6 52.8L236 55.6l10.9-8.7-.5-1-16.1 12.3 19.8-4.3-.5-1.1z"/><path class="st1" d="M236 55.6l10.9-8.7 2.7 5.9-13.6 2.8z"/><path class="st1" d="M239.5 54l7.8-6.2 1.9 4.2-9.7 2z"/><ellipse transform="rotate(-24.906 277.695 36.509)" class="st1" cx="277.7" cy="36.5" rx="5.9" ry="5.9"/><path class="st6" d="M271.5 39.4c-1.6-3.4-.1-7.5 3.3-9.1s7.5-.1 9.1 3.3.1 7.5-3.3 9.1c-3.5 1.6-7.5.1-9.1-3.3zm10.7-5c-1.1-2.5-4.1-3.5-6.6-2.4s-3.5 4.1-2.4 6.6 4.1 3.5 6.6 2.4c2.4-1.2 3.5-4.1 2.4-6.6z"/><path class="st6" d="M275.7 34l-.4-.9c2.6-1.2 5.5.3 6.7 2.9l-.9.4c-1.2-2.5-3.7-3.2-5.4-2.4z"/></svg>