<?xml version="1.0" encoding="utf-8"?>
<!-- Generator: Adobe Illustrator 21.1.0, SVG Export Plug-In . SVG Version: 6.00 Build 0)  -->
<svg version="1.1" id="Слой_1" xmlns="http://www.w3.org/2000/svg" xmlns:xlink="http://www.w3.org/1999/xlink" x="0px" y="0px"
	 viewBox="0 0 835 400" style="enable-background:new 0 0 835 400;" xml:space="preserve">
<style type="text/css">
	.st0{fill:none;stroke:#FFFFFF;stroke-miterlimit:10;}
	.st1{fill:#FFFFFF;}
	.st2{fill:#E5E6E5;}
	.st3{fill:none;stroke:#FFFFFF;stroke-width:2;stroke-miterlimit:10;}
	.st4{opacity:0.8;fill:none;stroke:#FFFFFF;stroke-miterlimit:10;enable-background:new    ;}
	.st5{opacity:0.8;fill:#EE3324;enable-background:new    ;}
	.st6{fill:#5D5C70;}
</style>
<path class="st0" d="M245.7,58.2l-1.4-7.3c-41.1,14.1-69.1,42.4-86.9,67.2c-3-7.6-10.4-13-19-13c-9,0-16.6,5.8-19.4,13.9
	c-2.2-0.5-4.6-0.8-7-0.8c-16.3,0-29.5,13.2-29.5,29.5s13.2,29.5,29.5,29.5c10.2,0,19.2-5.2,24.5-13h48.7c3.7,3.5,8.6,5.6,14,5.6
	c11.3,0,20.5-9.2,20.5-20.5c0-8-4.6-15-11.3-18.3C211.7,106.2,220.9,74.2,245.7,58.2z"/>
<path class="st1" d="M731.3,68.9l-1.6-1.6v-0.5c-0.2-2.8-2.5-5-5.3-5.3h-0.5l-1.8-1.8l1.6-1.6h0.5c2.9-0.1,5.3-2.5,5.5-5.5v-0.5
	l1.6-1.6l1.8,1.8v0.5c0.2,2.8,2.5,5,5.3,5.3h0.5l1.6,1.6l-1.8,1.8h-0.4c-2.6,0.3-4.8,2.4-5,5v0.4L731.3,68.9L731.3,68.9z
	 M727.4,59.8c1.8,0.8,3.2,2.3,4.1,4.1c0.8-1.8,2.3-3.2,4.1-4.1c-1.8-0.8-3.2-2.3-4.1-4.1C730.6,57.6,729.2,59,727.4,59.8z
	 M587.8,317.9H498l6.7-36h76.5L587.8,317.9z M501,315.5h83.9l-5.7-31h-72.4L501,315.5L501,315.5z"/>
<path class="st1" d="M591.3,331.6h-98c-4.1,0-7.4-3.3-7.4-7.4V323c0-4.1,3.3-7.4,7.4-7.4h98c4.1,0,7.4,3.3,7.4,7.4v1.2
	C598.7,328.2,595.4,331.6,591.3,331.6z M493.3,317.9c-2.7,0-5,2.2-5,5v1.2c0,2.7,2.2,5,5,5h98c2.7,0,5-2.2,5-5v-1.2c0-2.7-2.2-5-5-5
	H493.3z M463.8,316.8v-4.2h-4.2v-4.2h4.2v-4.2h4.2v4.2h4.2v4.2H468v4.2H463.8z M446.7,73.5c-2.4,0-4.3-1.9-4.3-4.3s1.9-4.3,4.3-4.3
	s4.3,1.9,4.3,4.3C451.1,71.6,449.1,73.5,446.7,73.5z M446.7,67.3c-1,0-1.9,0.8-1.9,1.9c0,1,0.8,1.9,1.9,1.9c1,0,1.9-0.8,1.9-1.9
	S447.8,67.3,446.7,67.3z M413.9,61.1c-4.1,0-7.4-3.3-7.4-7.4s3.3-7.4,7.4-7.4s7.4,3.3,7.4,7.4S418,61.1,413.9,61.1z M413.9,48.7
	c-2.7,0-5,2.2-5,5s2.2,5,5,5c2.7,0,5-2.2,5-5S416.6,48.7,413.9,48.7z M639.7,52.4h55.8v3.7h-55.8V52.4z M688.1,27.6h31v3.7h-31V27.6
	z M611.1,52.4h12.4v3.7h-12.4V52.4z M581.4,52.4h3.7v3.7h-3.7V52.4z M131,365.1h3.7v3.7H131V365.1z M776.8,247.2
	c-10.8,0-19.6-8.8-19.6-19.6S766,208,776.8,208s19.6,8.8,19.6,19.6C796.3,238.4,787.6,247.2,776.8,247.2L776.8,247.2z M776.8,210.6
	c-9.4,0-17.1,7.7-17.1,17.1s7.7,17.1,17.1,17.1c9.4,0,17.1-7.7,17.1-17.1S786.2,210.6,776.8,210.6z"/>
<path class="st1" d="M774.9,208.7h1.2v37.2h-1.2V208.7z"/>
<path class="st1" d="M757.5,228.6H796v1.2h-38.5V228.6z M760,218.7h32.3v1.2H760V218.7z M760,238.5h32.3v1.2H760V238.5z"/>
<path class="st1" d="M783.1,244.3l-1.2-0.3c0.5-2,1.2-4.3,1.9-6.6c1.1-3.4,2.2-6.9,2.4-9.3c0.2-3.4-1.2-8.8-2.5-13.6
	c-0.3-1.1-0.6-2.2-0.8-3.2l1.2-0.3c0.2,1,0.5,2.1,0.8,3.2c1.3,4.9,2.7,10.4,2.5,14c-0.1,2.6-1.3,6.2-2.4,9.7
	C784.3,240,783.6,242.3,783.1,244.3L783.1,244.3z M770.2,244.4c-0.2-0.4-4.4-10.7-4.4-16.3c0-5.9,4.4-16.7,4.6-17.2l1.1,0.5
	c0,0.1-4.5,11.1-4.5,16.7c0,5.3,4.2,15.7,4.3,15.8L770.2,244.4L770.2,244.4z"/>
<circle class="st1" cx="796.1" cy="192.9" r="5.3"/>
<circle class="st1" cx="772.5" cy="189.7" r="6.3"/>
<circle class="st1" cx="809.2" cy="212" r="4.2"/>
<circle class="st1" cx="807.6" cy="227.2" r="2.6"/>
<path class="st1" d="M410.1,155.4h64.5v6.2h-64.5V155.4z M670.7,130.6h-74.4V112h74.4V130.6z M597.5,129.3h72v-16.1h-72V129.3z
	 M567.7,148H410.1v-34.7h157.6V148z M411.4,146.7h155.1v-32.3H411.4V146.7L411.4,146.7z M597.5,136.8h21.1v6.2h-21.1V136.8z
	 M597.5,150.4h43.4v6.2h-43.4V150.4z M597.5,162.8h59.6v6.2h-59.6V162.8z M479.6,185.2h21.1v6.2h-21.1V185.2z M479.6,198.8H523v6.2
	h-43.4V198.8z M479.6,211.2h59.6v6.2h-59.6V211.2z M479.6,170.3h59.6v6.2h-59.6V170.3z M597.5,176.5h43.4v6.2h-43.4V176.5z
	 M597.5,188.9h21.1v1.2c0,0-2.5,0.3-4.1,1.9s-1.9,3.1-1.9,3.1h-15.1V188.9z M612.3,208.7h-14.8v-6.2h14.8V208.7z M612.3,221.2h-14.8
	V215h14.8V221.2z M612.4,234.8h-14.9v-6.2h14.8L612.4,234.8z M466.6,219.9h-35l17.2-35L466.6,219.9z"/>
<path class="st1" d="M454.7,219.9h-46.2l22.8-46.2L454.7,219.9L454.7,219.9z M410.5,218.7h42.2l-21.4-42.2L410.5,218.7L410.5,218.7z
	 M521.3,51.2h-46.1c-5,0-8.6-8.4-8.6-13c0-2.8,1.6-9.9,4.7-12c0.3-4.5,3.4-8.2,7.8-9.4c1.5-5,6.2-8.5,11.7-8.5
	c6.5,0,12,5.7,12.2,12.4c0.9-0.3,1.8-0.4,2.6-0.4c0.5,0,1.1,0,1.7,0.1c0.6,0,1.2,0.1,1.8,0.1c5.7,0,9.7,8,10.5,13.2h1.5
	c4.7,0,8.6,3.9,8.6,8.7S526,51.2,521.3,51.2L521.3,51.2z M490.9,10.9c-4.6,0-8.5,3-9.5,7.3l-0.2,0.8l-0.8,0.2
	c-3.9,0.8-6.6,4-6.6,7.9V28l-0.8,0.3c-1.9,0.7-3.9,7-3.9,10.1c0,3.8,3.1,10.5,6.1,10.5h46.1c3.4,0,6.1-2.8,6.1-6.2s-2.7-6.2-6.1-6.2
	h-3.8l-0.1-1.2c-0.3-4.7-4.1-12.1-8.2-12.1c-0.7,0-1.3,0-1.9-0.1c-0.5,0-1.1-0.1-1.6-0.1c-1.5,0-2.3,0.3-2.9,1.1l-2.6,3.2l0.3-4.1
	v-1.9C500.7,15.6,496.2,10.9,490.9,10.9z"/>
<path class="st1" d="M485,23c-0.8-3.4-5-4.1-5-4.1l0.4-2.4c0.2,0,5.8,1,7,5.9L485,23z M497.1,18.9c-0.9-3.8-5.5-4.6-5.5-4.6l0.2-1.2
	c0.2,0,5.4,1,6.5,5.5C498.3,18.6,497.1,18.9,497.1,18.9z M525.8,22.5l-2.4-0.5c0.3-1.3,0-2.7-0.8-3.8c-0.8-1.1-1.9-1.9-3.3-2.2
	l0.5-2.4c2,0.4,3.7,1.5,4.9,3.2C525.7,18.5,526.2,20.5,525.8,22.5z M537.2,21.8l-2.4-0.5c1.2-6.3-2.9-12.5-9.3-13.7l0.5-2.4
	C533.7,6.6,538.7,14.1,537.2,21.8z M331.3,216.2c-2.5,0-4.9-0.4-7.3-1.1l-1.2-0.4l0.9-2.4l-1.8-0.7l-1.3,2.1l-1.1-0.6
	c-3.8-2.1-7-5.2-9.1-9l-0.6-1.1l2.7-1.6l-0.9-1.7l-2.8,1l-0.4-1.2c-0.8-2.4-1.2-5-1.2-7.5c0-2.2,0.3-4.3,0.9-6.4l0.3-1.2l3.4,0.9
	l0.6-1.9l-3-1.5l0.6-1.1c2.1-3.9,5.1-7.2,8.9-9.5l1.1-0.7l1.7,3.1l1.7-0.9l-1.1-3.3l1.2-0.4c5.1-1.8,10.8-1.8,15.9,0l1.2,0.4
	l-1.3,3.9l1.7,0.9l2.1-3.7l1.1,0.7c3.9,2.4,7,5.9,9,10l0.5,1.1l-3.4,1.7l0.6,1.9l3.8-1l0.3,1.2c0.5,1.9,0.7,3.8,0.7,5.7
	c0,2.6-0.4,5.1-1.2,7.5l-0.4,1.2l-2.9-1l-0.9,1.7l2.8,1.6l-0.6,1.1c-2.1,3.6-5.1,6.6-8.6,8.7l-1.1,0.6l-1.1-1.9l-1.8,0.7l0.8,2.2
	l-1.2,0.4C336.7,215.8,334,216.2,331.3,216.2L331.3,216.2z M326,213.1c3.6,0.9,7.5,0.9,11.2-0.1l-0.7-2.1l6.1-2.3l0.9,1.5
	c2.4-1.6,4.5-3.7,6.1-6.1l-2.7-1.6l3.1-5.7l2.5,0.9c0.5-1.8,0.7-3.7,0.7-5.6c0-1.3-0.1-2.6-0.4-3.9l-3.6,1l-1.8-6.2l3-1.5
	c-1.6-2.8-3.8-5.3-6.4-7.1l-2,3.5l-5.7-3.1l1.2-3.6c-3.9-1.1-8.1-1.1-12,0l1,2.9l-5.7,3.1l-1.7-2.9c-2.6,1.8-4.7,4.1-6.3,6.8
	l2.6,1.3l-1.8,6.2l-3.3-0.9c-0.3,1.5-0.5,3-0.5,4.5c0,1.9,0.2,3.7,0.7,5.5l2.4-0.8l3.1,5.7l-2.6,1.5c1.7,2.6,3.9,4.8,6.5,6.4
	l1.1-1.8l6.1,2.3L326,213.1L326,213.1z M331.3,204.4c-6.8,0-12.4-5.5-12.4-12.4c0-6.8,5.5-12.4,12.4-12.4c6.8,0,12.4,5.5,12.4,12.4
	C343.7,198.8,338.2,204.4,331.3,204.4z M331.3,182.1c-5.4,0-9.9,4.4-9.9,9.9c0,5.4,4.4,9.9,9.9,9.9c5.4,0,9.9-4.4,9.9-9.9
	C341.2,186.6,336.8,182.1,331.3,182.1z"/>
<path class="st1" d="M331.3,206.9c-8.2,0-14.9-6.7-14.9-14.9s6.7-14.9,14.9-14.9s14.9,6.7,14.9,14.9S339.6,206.9,331.3,206.9z
	 M331.3,178.4c-7.5,0-13.6,6.1-13.6,13.6s6.1,13.6,13.6,13.6s13.6-6.1,13.6-13.6S338.9,178.4,331.3,178.4z M735.2,154.2h39.7v3.7
	h-39.7V154.2z M711.6,140.5h39.7v3.7h-39.7V140.5z M782.4,154.2h6.2v3.7h-6.2V154.2z M150.8,363.8h12.4v3.7h-12.4V363.8z
	 M354.3,342.7h3.7v3.7h-3.7V342.7z M370.4,342.7h229.5v3.7H370.4V342.7z M696.7,382.5h95.5v3.7h-95.5V382.5z M500.1,76.6
	c-1,0-1.9-0.8-1.9-1.9V62.3c0-1,0.8-1.9,1.9-1.9c1,0,1.9,0.8,1.9,1.9v12.4C501.9,75.8,501.1,76.6,500.1,76.6z"/>
<path class="st1" d="M505.7,68.1c-0.4,0-0.9-0.2-1.2-0.5l-5.6-5c-0.8-0.7-0.8-1.9-0.2-2.6c0.7-0.8,1.9-0.8,2.6-0.2l5.6,5
	c0.8,0.7,0.8,1.9,0.2,2.6C506.7,67.9,506.2,68.1,505.7,68.1z"/>
<path class="st1" d="M494.5,68.1c-0.5,0-1-0.2-1.3-0.5c-0.7-0.7-0.7-1.9,0-2.6l5.6-5.6c0.7-0.7,1.9-0.7,2.6,0s0.7,1.9,0,2.6
	l-5.6,5.6C495.5,68,495,68.1,494.5,68.1L494.5,68.1z M713.5,184.6c-1,0-1.9-0.8-1.9-1.9v-12.4c0-1,0.8-1.9,1.9-1.9s1.9,0.8,1.9,1.9
	v12.4C715.4,183.7,714.5,184.6,713.5,184.6z"/>
<path class="st1" d="M713.6,185.1c-0.4,0-0.9-0.2-1.2-0.5l-5.6-5c-0.8-0.7-0.8-1.9-0.2-2.6c0.7-0.8,1.9-0.8,2.6-0.2l5.6,5
	c0.8,0.7,0.8,1.9,0.2,2.6C714.6,184.9,714.1,185.1,713.6,185.1L713.6,185.1z"/>
<path class="st1" d="M713.6,185.7c-0.5,0-1-0.2-1.3-0.5c-0.7-0.7-0.7-1.9,0-2.6l5.6-5.6c0.7-0.7,1.9-0.7,2.6,0
	c0.7,0.7,0.7,1.9,0,2.6l-5.6,5.6C714.5,185.5,714.1,185.7,713.6,185.7z M825.8,382.5h3.7v3.7h-3.7V382.5z M802.2,382.5h12.4v3.7
	h-12.4V382.5z M497.6,362c-2.1,0-3.7-1.7-3.7-3.7c0-2.1,1.7-3.7,3.7-3.7c2.1,0,3.7,1.7,3.7,3.7S499.7,362,497.6,362z M497.6,355.8
	c-1.4,0-2.5,1.1-2.5,2.5s1.1,2.5,2.5,2.5s2.5-1.1,2.5-2.5S499,355.8,497.6,355.8z M379.1,311.7c-4.1,0-7.4-3.3-7.4-7.4
	s3.3-7.4,7.4-7.4s7.4,3.3,7.4,7.4S383.2,311.7,379.1,311.7z M379.1,299.3c-2.7,0-5,2.2-5,5s2.2,5,5,5c2.7,0,5-2.2,5-5
	S381.9,299.3,379.1,299.3z M330.7,154.2h39.7v3.7h-39.7V154.2z M95,190.1h203.5v3.7H95V190.1z M283.4,225.3l-1.6-1.6v-0.5
	c-0.2-2.8-2.5-5-5.3-5.3H276l-1.8-1.8l1.6-1.6h0.5c2.9-0.1,5.3-2.5,5.5-5.5v-0.5l1.6-1.6l1.8,1.8v0.5c0.2,2.8,2.5,5,5.3,5.3h0.5
	l1.6,1.6l-1.8,1.8h-0.4c-2.6,0.3-4.8,2.4-5,5v0.4L283.4,225.3L283.4,225.3z M279.5,216.2c1.8,0.8,3.2,2.3,4.1,4.1
	c0.8-1.8,2.3-3.2,4.1-4.1c-1.8-0.8-3.2-2.3-4.1-4.1C282.7,213.9,281.3,215.3,279.5,216.2z M288.2,171.5h-7.4v-6.7
	c-0.3-0.1-0.6-0.3-1-0.5l-4.2,4.6l-5.3-5.1l4.7-4.6c0-0.1-0.1-0.1-0.1-0.2s-0.1-0.2-0.1-0.3h-7.5v-7.4h7.3c0.1-0.4,0.2-0.8,0.4-1.2
	l-4.8-5.1l5.1-5.2l4.4,4.6c0.3-0.2,0.6-0.4,1-0.5v-6h7.4v6c0.4,0.1,0.8,0.3,1.2,0.4l4.7-4.3l5.2,5.3l-4.2,4.4
	c0.2,0.4,0.4,0.9,0.6,1.7h5.3v7.4h-5.4c-0.2,0.3-0.3,0.6-0.5,0.9v0.1l4.2,3.9l-5.3,5.2l-4.5-4.4c-0.3,0.1-0.7,0.3-1.2,0.4
	L288.2,171.5L288.2,171.5z M282.2,170.2h4.7v-6.3l0.5-0.1c0.3-0.1,1.3-0.3,1.9-0.6l0.4-0.2l4.3,4.1l3.4-3.3l-4-3.7l0.3-0.5l0.3-0.6
	c0.2-0.4,0.4-0.7,0.6-1.1l0.2-0.5h5v-4.7h-5l-0.1-0.6c-0.2-1.1-0.4-1.5-0.7-2l-0.4-0.6l4-4.2l-3.4-3.4l-4.4,4.1l-0.4-0.2
	c-0.4-0.2-1.2-0.5-1.9-0.7L287,145v-5.7h-4.7v5.6l-0.5,0.2c-0.4,0.1-0.8,0.3-1.2,0.6c-0.1,0.1-0.3,0.2-0.4,0.3l-0.5,0.3l-4.2-4.3
	l-3.2,3.3l4.5,4.8l-0.2,0.4c-0.2,0.4-0.4,1.1-0.5,1.6l-0.2,0.7h-7v4.7h6.5c0.6,0,0.8,0.5,1,1.1c0.1,0.2,0.2,0.4,0.2,0.6l0.2,0.4
	l-4.4,4.3l3.3,3.2l4-4.4l0.7,0.4c0.5,0.3,0.9,0.5,1.4,0.7l0.5,0.2L282.2,170.2L282.2,170.2z M285.5,159.5c-3,0-5.4-2.4-5.4-5.4
	s2.4-5.4,5.4-5.4s5.4,2.4,5.4,5.4S288.5,159.5,285.5,159.5z M285.5,150.1c-2.2,0-4,1.8-4,4s1.8,4,4,4s4-1.8,4-4
	S287.8,150.1,285.5,150.1z M462.4,386.2h-90.7c-2.7,0-5-2-5-4.5v-12c0-2.5,2.2-4.5,5-4.5h90.8l39.2,9.8L462.4,386.2L462.4,386.2z
	 M371.7,367.6c-1.4,0-2.5,0.9-2.5,2v12c0,1.1,1.1,2,2.5,2h90.4l30.1-8.6l-30.1-7.5h-90.4V367.6z"/>
<path class="st1" d="M169.5,236v48.4h16.1V236H169.5z M183.1,282h-11.2v-43.4h11.2V282z M547.9,37.5h-1.2c-1.1,0-1.9,0.8-1.9,1.9
	c0,1.1,0.9,1.9,1.9,1.9h1.2c1,0,1.9-0.8,1.9-1.9C549.8,38.3,548.9,37.5,547.9,37.5z M560.8,37.5h-1.2c-1.1,0-1.9,0.8-1.9,1.9
	c0,1.1,0.9,1.9,1.9,1.9h1.2c1,0,1.9-0.8,1.9-1.9S561.8,37.5,560.8,37.5z M573.7,37.5h-1.2c-1.1,0-1.9,0.8-1.9,1.9
	c0,1.1,0.9,1.9,1.9,1.9h1.2c1.1,0,1.9-0.8,1.9-1.9C575.6,38.3,574.7,37.5,573.7,37.5z M586.7,37.5h-1.2c-1.1,0-1.9,0.8-1.9,1.9
	c0,1.1,0.9,1.9,1.9,1.9h1.2c1,0,1.9-0.8,1.9-1.9C588.6,38.3,587.7,37.5,586.7,37.5z M599.6,37.5h-1.2c-1.1,0-1.9,0.8-1.9,1.9
	c0,1.1,0.9,1.9,1.9,1.9h1.2c1,0,1.9-0.8,1.9-1.9S600.6,37.5,599.6,37.5z M612.5,37.5h-1.2c-1.1,0-1.9,0.8-1.9,1.9
	c0,1.1,0.9,1.9,1.9,1.9h1.2c1.1,0,1.9-0.8,1.9-1.9S613.5,37.5,612.5,37.5z M625.5,37.5h-1.2c-1.1,0-1.9,0.8-1.9,1.9
	c0,1.1,0.9,1.9,1.9,1.9h1.2c1,0,1.9-0.8,1.9-1.9S626.5,37.5,625.5,37.5z M638.4,37.5h-1.2c-1.1,0-1.9,0.8-1.9,1.9
	c0,1.1,0.9,1.9,1.9,1.9h1.2c1.1,0,1.9-0.8,1.9-1.9C640.3,38.3,639.4,37.5,638.4,37.5z M245.1,383.6h-1.2c-1.1,0-1.9,0.9-1.9,1.9
	c0,1.1,0.9,1.9,1.9,1.9h1.2c1,0,1.9-0.8,1.9-1.9S246.1,383.6,245.1,383.6z M256.2,383.6H255c-1.1,0-1.9,0.9-1.9,1.9
	c0,1.1,0.9,1.9,1.9,1.9h1.3c1,0,1.8-0.8,1.8-1.9S257.2,383.6,256.2,383.6z M267.4,383.6h-1.2c-1.1,0-1.9,0.9-1.9,1.9
	c0,1.1,0.9,1.9,1.9,1.9h1.2c1.1,0,1.9-0.8,1.9-1.9S268.4,383.6,267.4,383.6z M278.6,383.6h-1.2c-1.1,0-1.9,0.9-1.9,1.9
	c0,1.1,0.9,1.9,1.9,1.9h1.2c1,0,1.9-0.8,1.9-1.9S279.6,383.6,278.6,383.6z M289.8,383.6h-1.2c-1.1,0-1.9,0.9-1.9,1.9
	c0,1.1,0.9,1.9,1.9,1.9h1.2c1,0,1.8-0.8,1.9-1.9C291.7,384.4,290.8,383.6,289.8,383.6z M300.9,383.6h-1.2c-1.1,0-1.9,0.9-1.9,1.9
	c0,1.1,0.9,1.9,1.9,1.9h1.2c1.1,0,1.9-0.8,1.9-1.9S301.9,383.6,300.9,383.6z M312.1,383.6h-1.2c-1.1,0-1.9,0.9-1.9,1.9
	c0,1.1,0.9,1.9,1.9,1.9h1.2c1,0,1.9-0.8,1.9-1.9S313.1,383.6,312.1,383.6z M323.2,383.6H322c-1.1,0-1.9,0.9-1.9,1.9
	c0,1.1,0.9,1.9,1.9,1.9h1.3c1,0,1.8-0.8,1.8-1.9S324.2,383.6,323.2,383.6z M334.4,383.6h-1.2c-1.1,0-1.9,0.9-1.9,1.9
	c0,1.1,0.9,1.9,1.9,1.9h1.2c1.1,0,1.9-0.8,1.9-1.9S335.4,383.6,334.4,383.6z M345.6,383.6h-1.2c-1.1,0-1.9,0.9-1.9,1.9
	c0,1.1,0.9,1.9,1.9,1.9h1.2c1,0,1.9-0.8,1.9-1.9S346.6,383.6,345.6,383.6z M173.2,363.8v3.7h136.5v-3.7H173.2z M472.2,371.6v7.2
	l13.6-3.8L472.2,371.6z"/>
<path class="st1" d="M395.5,236.1c-1.1,0-1.9-0.9-1.9-1.9V99c0-1.1,0.9-1.9,1.9-1.9V97h286.6c1.1,0,1.9,0.9,1.9,1.9V190h1.2V98.9
	c0-1.7-1.4-3.1-3.1-3.1H395.5c-1.7,0-3.1,1.4-3.1,3.1v135.3c0,1.7,1.4,3.1,3.1,3.1h216.8v-1.2"/>
<path class="st1" d="M171.9,286.9H21.8v-53.4h150.1L171.9,286.9L171.9,286.9z M24.3,284.4h145.2V236H24.3V284.4L24.3,284.4z"/>
<path class="st1" d="M26.7,260.9h140.2V282H26.7V260.9z M153.7,250.8c-2.5,0-4.5-2-4.5-4.5s2-4.5,4.5-4.5s4.5,2,4.5,4.5
	S156.2,250.8,153.7,250.8z M153.7,244.3c-1.1,0-2,0.9-2,2s0.9,2,2,2s2-0.9,2-2S154.8,244.3,153.7,244.3z M219.1,290.3l-36-11.1
	v-37.9l36-11.1V290.3z M185.6,277.4l31,9.5v-53.2l-31,9.5V277.4z M319.6,262.1H265v-12.4h54.6v2.5h-52.2v7.4h52.2V262.1z"/>
<path class="st1" d="M340.9,264.6h-19c-1.9,0-3.6-1.8-3.6-3.8v-4.9h2.5v4.9c0,0.6,0.6,1.3,1.1,1.3h19c0.5,0,1-0.7,1-1.3V250v-0.2
	c0,0-0.2-0.1-1-0.1h-22.5c0-1.2,0.5-2.5,3.5-2.5h19c3.1,0,3.5,1.7,3.5,2.8v10.8C344.4,262.6,342.9,264.6,340.9,264.6L340.9,264.6z
	 M262.8,274.5h-7.3c-2.6,0-4.2-2.5-4.2-4.7v-0.2H201c-6.6,0-11.7-5-11.7-11.3V254c0-6.5,5.3-11.8,11.7-11.8h50.3
	c0.6-1.7,2.1-3.7,4.2-3.7h7.3c2.6,0,4.6,2.8,4.6,5v26.2C267.4,272.2,265.2,274.5,262.8,274.5z M201,244.7c-5.1,0-9.2,4.2-9.2,9.3
	v4.2c0,5,4.1,8.8,9.2,8.8h52.8v2.7c0,1.1,0.7,2.3,1.7,2.3h7.3c1,0,2.1-1.2,2.1-2.3v-26.2c0-1.1-1.2-2.5-2.1-2.5h-7.3
	c-0.9,0-1.7,1.8-1.7,2.5v1.2L201,244.7L201,244.7z"/>
<path class="st2" d="M251.3,258.4h2.5v9.9h-2.5V258.4z"/>
<path class="st1" d="M9.7,221.2V217H5.5v-4.2h4.2v-4.2h4.2v4.2h4.2v4.2h-4.2v4.2H9.7z M106.8,337.8c-2.4,0-4.3-1.9-4.3-4.3
	s1.9-4.3,4.3-4.3s4.3,1.9,4.3,4.3C111.1,335.8,109.2,337.8,106.8,337.8z M106.8,331.6c-1,0-1.9,0.8-1.9,1.9s0.8,1.9,1.9,1.9
	c1,0,1.9-0.8,1.9-1.9S107.8,331.6,106.8,331.6z M29.2,213.7c-4.1,0-7.4-3.3-7.4-7.4c0-4.1,3.3-7.4,7.4-7.4s7.4,3.3,7.4,7.4
	C36.7,210.4,33.3,213.7,29.2,213.7z M29.2,201.3c-2.7,0-5,2.2-5,5c0,2.7,2.2,5,5,5c2.7,0,5-2.2,5-5S32,201.3,29.2,201.3z
	 M165.7,326.6c-4.1,0-7.4-3.3-7.4-7.4s3.3-7.4,7.4-7.4c4.1,0,7.4,3.3,7.4,7.4S169.8,326.6,165.7,326.6z M165.7,314.2
	c-2.7,0-5,2.2-5,5s2.2,5,5,5c2.7,0,5-2.2,5-5S168.4,314.2,165.7,314.2z M78.9,203.8h3.7v3.7h-3.7V203.8z M95,203.8h50.9v3.7H95
	V203.8z M287.3,324.1h55.8v3.7h-55.8V324.1z M258.8,324.1h12.4v3.7h-12.4V324.1z M229,324.1h3.7v3.7H229V324.1z M286.1,313h-1.2
	c-1,0-1.9-0.8-1.9-1.9c0-1,0.8-1.9,1.9-1.9h1.2c1,0,1.9,0.8,1.9,1.9C287.9,312.1,287.1,313,286.1,313z M273.1,313h-1.2
	c-1,0-1.9-0.8-1.9-1.9c0-1,0.8-1.9,1.9-1.9h1.2c1,0,1.9,0.8,1.9,1.9C275,312.1,274.1,313,273.1,313z M260.2,313H259
	c-1,0-1.9-0.8-1.9-1.9c0-1,0.8-1.9,1.9-1.9h1.2c1,0,1.9,0.8,1.9,1.9C262,312.1,261.2,313,260.2,313z M247.2,313H246
	c-1,0-1.9-0.8-1.9-1.9c0-1,0.8-1.9,1.9-1.9h1.2c1,0,1.9,0.8,1.9,1.9C249.1,312.1,248.3,313,247.2,313z M234.3,313h-1.2
	c-1,0-1.9-0.8-1.9-1.9c0-1,0.8-1.9,1.9-1.9h1.2c1,0,1.9,0.8,1.9,1.9C236.2,312.1,235.3,313,234.3,313z M221.4,313h-1.2
	c-1,0-1.9-0.8-1.9-1.9c0-1,0.8-1.9,1.9-1.9h1.2c1,0,1.9,0.8,1.9,1.9C223.2,312.1,222.4,313,221.4,313z M550.7,365.1H545
	c-1.8,0-3.3-1.5-3.3-3.3V356c0-1.8,1.5-3.3,3.3-3.3h5.7c1.8,0,3.3,1.5,3.3,3.3v5.7C554.1,363.6,552.6,365.1,550.7,365.1z M545,355.2
	c-0.5,0-0.9,0.4-0.9,0.9v5.7c0,0.5,0.4,0.9,0.9,0.9h5.7c0.5,0,0.9-0.4,0.9-0.9V356c0-0.5-0.4-0.9-0.9-0.9H545V355.2z M550.7,380H545
	c-1.8,0-3.3-1.5-3.3-3.3V371c0-1.8,1.5-3.3,3.3-3.3h5.7c1.8,0,3.3,1.5,3.3,3.3v5.7C554.1,378.5,552.6,380,550.7,380z M545,370
	c-0.5,0-0.9,0.4-0.9,0.9v5.7c0,0.5,0.4,0.9,0.9,0.9h5.7c0.5,0,0.9-0.4,0.9-0.9v-5.7c0-0.5-0.4-0.9-0.9-0.9H545z M550.7,394.9H545
	c-1.8,0-3.3-1.5-3.3-3.3v-5.7c0-1.8,1.5-3.3,3.3-3.3h5.7c1.8,0,3.3,1.5,3.3,3.3v5.7C554.1,393.4,552.6,394.9,550.7,394.9z
	 M545,384.9c-0.5,0-0.9,0.4-0.9,0.9v5.7c0,0.5,0.4,0.9,0.9,0.9h5.7c0.5,0,0.9-0.4,0.9-0.9v-5.7c0-0.5-0.4-0.9-0.9-0.9H545z
	 M559,362.6h34.7v2.5H559V362.6z M559,376.2h22.3v2.5H559V376.2z M559,389.9h34.7v2.5H559V389.9z"/>
<path class="st1" d="M542,363.3l8.7-8.7l1.8,1.8l-8.7,8.7L542,363.3z M755.7,93.6l-10.8-4.8v-1.6l10.8-5.4v2.6l-7.5,3.5l7.5,3.1
	C755.7,91,755.7,93.6,755.7,93.6z M766.9,79.9L761,95.8h-3l5.9-15.9H766.9z M769.1,91l7.5-3.1l-7.5-3.5v-2.6l10.8,5.4v1.6l-10.8,4.8
	V91z M461,365.1h2.5v18.6H461V365.1z M390.3,377.5h62v2.5h-62V377.5z M382.8,365.1h2.5V385h-2.5V365.1z M612.3,251H379.1v-2.5h233.2
	V251z"/>
<path class="st1" d="M696.8,190.1V88.6c0-2.1-1.7-3.9-3.9-3.9H385.5c-2.1,0-3.9,1.7-3.9,3.9v189.5c0,2.1,1.7,3.9,3.9,3.9h226.9v2.4
	H385.5c-3.5,0-6.4-2.9-6.4-6.4V88.6c0-3.5,2.9-6.4,6.4-6.4h307.4c3.5,0,6.4,2.9,6.4,6.4V190"/>
<circle class="st3" cx="745.8" cy="362" r="3.1"/>
<path class="st4" d="M710.1,349h-90.8c-3.8,0-6.9-3-6.9-6.8v-57.8V282v-44.7v-1.2v-27.3v-11.9c0-3.7,3.1-6.8,6.9-6.8h65.1h1.2h11.2"
	/>
<path class="st4" d="M699.3,190.1h26.5c3.8,0,6.9,3,6.9,6.8v68.5"/>
<path class="st5" d="M696.8,190.1h2.5"/>
<path class="st1" d="M721.5,195.1H626c-4.1,0-7.4,3.3-7.4,7.4v134c0,4.1,3.3,7.4,7.4,7.4h84.1v-2.4H626c-2.8,0-5-2.3-5-5v-134
	c0-2.8,2.3-5,5-5h95.5c2.8,0,5,2.3,5,5v62.8h2.4v-62.8C728.9,198.4,725.6,195.1,721.5,195.1z"/>
<path class="st1" d="M675.6,324.1c-3.4,0-6.2,2.8-6.2,6.2c0,3.4,2.8,6.2,6.2,6.2c3.5,0,6.2-2.8,6.2-6.2
	C681.8,326.9,679,324.1,675.6,324.1z M675.6,334c-2,0-3.7-1.6-3.7-3.7c0-2,1.6-3.7,3.7-3.7c2.1,0,3.8,1.7,3.7,3.7
	C679.3,332.3,677.7,334,675.6,334z M716.6,317.9 M628.5,206.3v112.9h81.2v-1.3h-80V207.5h86.9V266h1.2v-59.7H628.5z"/>
<path class="st1" d="M637.2,218.7h59.6v6.2h-59.6V218.7z M637.2,232.3h36v6.2h-36V232.3z M637.2,283.2h59.6v6.2h-59.6V283.2z
	 M637.2,296.8h36v6.2h-36V296.8z M709.1,278.2h-73.2v-33.5h73.2V278.2z M637.2,277h70.7v-31h-70.7V277z"/>
<path class="st0" d="M779.9,368.9c0,4.1-3.4,7.4-7.7,7.4h-54.1c-4.2,0-7.7-3.3-7.7-7.4v-95.7c0-4.1,3.4-7.4,7.7-7.4h54.1
	c4.2,0,7.7,3.3,7.7,7.4V368.9L779.9,368.9z"/>
<path class="st1" d="M769.4,373.8h-47.3c-4.4,0-8-3.6-8-8v-88.3c0-4.4,3.6-8,8-8h47.3c4.4,0,8,3.6,8,8v88.3
	C777.4,370.2,773.8,373.8,769.4,373.8z M722.1,272c-3,0-5.5,2.5-5.5,5.5v88.3c0,3,2.5,5.5,5.5,5.5h47.3c3,0,5.5-2.5,5.5-5.5v-88.3
	c0-3-2.5-5.5-5.5-5.5H722.1z"/>
<path class="st1" d="M717.8,288.2v-8.7c0-3.4,2.8-6.2,6.2-6.2h43.4c3.4,0,6.2,2.8,6.2,6.2v8.7H717.8L717.8,288.2z M717.8,355.2v8.7
	c0,3.4,2.8,6.2,6.2,6.2h43.4c3.4,0,6.2-2.8,6.2-6.2v-8.7H717.8L717.8,355.2z"/>
<path class="st1" d="M750.3,284.4h-9.9c-1,0-1.9-0.8-1.9-1.9c0-1,0.8-1.9,1.9-1.9h9.9c1,0,1.9,0.8,1.9,1.9S751.4,284.4,750.3,284.4z
	"/>
<circle class="st1" cx="756.9" cy="281.3" r="1.9"/>
<path class="st1" d="M722.8,296.8h32.3v3.7h-32.3V296.8z M722.8,305.5h19.9v2.5h-19.9V305.5z M722.8,332.8h32.3v3.7h-32.3V332.8z
	 M722.8,340.3h19.9v3.7h-19.9V340.3z M762.5,330.3h-40.9v-18.6h40.9V330.3z M722.8,329.1h38.5V313h-38.5V329.1L722.8,329.1z"/>
<g>
	<path class="st1" d="M686.3,117.7c-3.6,0-7.1-1.4-9.6-4c-2.6-2.6-4-6-4-9.6s1.4-7.1,4-9.6c2.6-2.6,6-4,9.6-4s7.1,1.4,9.6,4
		s4,6,4,9.6s-1.4,7.1-4,9.6S689.9,117.7,686.3,117.7z M686.3,92.9c-3,0-5.8,1.2-7.9,3.3c-2.1,2.1-3.3,4.9-3.3,7.9s1.2,5.8,3.3,7.9
		s4.9,3.3,7.9,3.3s5.8-1.2,7.9-3.3c2.1-2.1,3.3-4.9,3.3-7.9s-1.2-5.8-3.3-7.9S689.3,92.9,686.3,92.9z"/>
	<path class="st1" d="M710.5,132.2c-0.8,0-1.6-0.3-2.2-0.9l-14.9-14.9c-1.2-1.2-1.2-3.2,0-4.4c1.2-1.2,3.2-1.2,4.4,0l14.9,14.9
		c1.2,1.2,1.2,3.2,0,4.4C712.1,131.8,711.3,132.2,710.5,132.2z M690.7,99c-1.2-1.2-2.8-1.8-4.4-1.8s-3.2,0.7-4.4,1.8l-1.8-1.8
		c1.7-1.7,3.8-2.6,6.2-2.6s4.5,0.9,6.2,2.6L690.7,99z"/>
</g>
<path class="st1" d="M260.2,243.5H255c-1.2,0-2.2,2.5-2.2,3.7h-51.5c-4.1,0-7,3.1-7,7.2v3c0,4.2,2.9,7.1,7,7.1h52.5v1.2
	c0,1.3,0,2.5,1.2,2.5h5.2c1.2,0,2.3-1.3,2.3-2.5v-18.9C262.5,245.6,261.4,243.5,260.2,243.5L260.2,243.5z"/>
<path class="st1" d="M227.3,287.2c-2,0-3.7-0.9-4.6-2.5l-6.5-11.8c-1.4-2.6-0.1-6.2,2.9-7.9c1.1-0.7,2.4-1,3.6-1
	c2,0,3.7,0.9,4.6,2.5l6.5,11.8c1.4,2.6,0.1,6.2-2.9,7.9C229.8,286.8,228.5,287.2,227.3,287.2z M222.7,266.4c-0.8,0-1.6,0.2-2.4,0.7
	c-1.9,1.1-2.8,3.2-2,4.6l6.5,11.8c0.4,0.8,1.3,1.2,2.4,1.2c0.8,0,1.6-0.2,2.4-0.7c1.9-1.1,2.8-3.2,2-4.6l-6.5-11.8
	C224.7,266.8,223.8,266.4,222.7,266.4z"/>
<path class="st2" d="M230.3,285.1c-2.5,1.4-5.4,1-6.5-1l-6.5-11.8c-1.1-2,0-4.8,2.5-6.3c2.5-1.4,5.4-1,6.5,1l6.5,11.8
	C233.8,280.8,232.7,283.6,230.3,285.1z"/>
<path class="st2" d="M221.3,290.3c-2.5,1.4-5.4,1-6.5-1l-6.5-11.8c-1.1-2,0-4.8,2.5-6.3c2.5-1.4,5.4-1,6.5,1l6.5,11.8
	C224.9,286.1,223.8,288.9,221.3,290.3z M229.7,258c-3.3,1.9-7.2,1.3-8.6-1.4l-8.7-15.8c-1.5-2.7,0-6.4,3.3-8.3
	c3.3-1.9,7.2-1.3,8.6,1.4l8.7,15.8C234.5,252.4,233,256.1,229.7,258z M248.1,274.6c-2.5,1.4-5.4,1-6.5-1l-6.5-11.8
	c-1.1-2,0-4.8,2.5-6.3c2.5-1.4,5.4-1,6.5,1l6.5,11.8C251.7,270.3,250.6,273.1,248.1,274.6L248.1,274.6z"/>
<path class="st2" d="M239.2,279.8c-2.5,1.4-5.4,1-6.5-1l-6.5-11.8c-1.1-2,0-4.8,2.5-6.3c2.5-1.4,5.4-1,6.5,1l6.5,11.8
	C242.8,275.6,241.7,278.4,239.2,279.8z"/>
<path class="st1" d="M218.3,292.4c-2,0-3.7-0.9-4.6-2.5l-6.5-11.8c-1.4-2.6-0.1-6.2,2.9-7.9c1.1-0.7,2.4-1,3.6-1
	c2,0,3.7,0.9,4.6,2.5l6.5,11.8c1.4,2.6,0.1,6.2-2.9,7.9C220.8,292.1,219.6,292.4,218.3,292.4z M213.8,271.6c-0.8,0-1.6,0.2-2.4,0.7
	c-1.9,1.1-2.8,3.2-2,4.6l6.5,11.8c0.4,0.8,1.3,1.2,2.4,1.2c0.8,0,1.6-0.2,2.4-0.7c1.9-1.1,2.8-3.2,2-4.6l-6.5-11.8
	C215.7,272.1,214.9,271.6,213.8,271.6z M225.7,260.4c-0.7,0-1.4-0.1-2-0.3c-1.6-0.5-3-1.5-3.7-2.9l-6.7-12.1l2.2-1.2l6.7,12.1
	c0.6,1,1.5,1.5,2.2,1.7c1.5,0.4,3.2,0.1,4.7-0.8c2.7-1.6,4-4.6,2.8-6.7l-8.7-15.8c-0.6-1-1.5-1.5-2.2-1.7c-1.5-0.4-3.2-0.1-4.7,0.8
	l-0.3,0.1l-5.2,1.6l-0.7-2.4l5.1-1.5c2.1-1.2,4.4-1.5,6.5-1c1.6,0.5,3,1.5,3.7,2.9l8.7,15.8c1.8,3.3,0.1,7.8-3.7,10
	C228.9,260,227.3,260.4,225.7,260.4L225.7,260.4z M245.2,276.7c-2,0-3.7-0.9-4.6-2.5l-6.5-11.8c-1.4-2.6-0.1-6.2,2.9-7.9
	c1.1-0.7,2.4-1,3.6-1c2,0,3.7,0.9,4.6,2.5l6.5,11.8c1.4,2.6,0.1,6.2-2.9,7.9C247.6,276.3,246.4,276.7,245.2,276.7z M240.6,255.9
	c-0.8,0-1.6,0.2-2.4,0.7c-1.9,1.1-2.8,3.2-2,4.6l6.5,11.8c0.4,0.8,1.3,1.2,2.4,1.2c0.8,0,1.6-0.2,2.4-0.7c1.9-1.1,2.8-3.2,2-4.6
	l-6.5-11.8C242.5,256.3,241.7,255.9,240.6,255.9z"/>
<path class="st1" d="M236.2,281.9c-2,0-3.7-0.9-4.6-2.5l-6.5-11.8c-1.4-2.6-0.1-6.2,2.9-7.9c1.1-0.7,2.4-1,3.6-1
	c2,0,3.7,0.9,4.6,2.5l6.5,11.8c1.4,2.6,0.1,6.2-2.9,7.9C238.7,281.6,237.4,281.9,236.2,281.9z M231.6,261.1c-0.8,0-1.6,0.2-2.4,0.7
	c-1.9,1.1-2.8,3.2-2,4.6l6.5,11.8c0.4,0.8,1.3,1.2,2.4,1.2c0.8,0,1.6-0.2,2.4-0.7c1.9-1.1,2.8-3.2,2-4.6l-6.5-11.8
	C233.6,261.6,232.7,261.1,231.6,261.1z"/>
<g>
	<path class="st1" d="M248.2,40c0,0-7.5-5.8-16.3,3.6c1.9-5.4,11.7-17.8,22-13.9C260.4,32.1,248.2,40,248.2,40z"/>
	<path class="st6" d="M229.5,47.6l1.5-4.3c1.3-3.8,6.3-10.8,12.8-13.8c3.6-1.7,7.1-1.9,10.5-0.7c1.1,0.4,1.9,1.1,2.3,1.9
		c1.7,3.8-6.2,9.1-7.8,10.1l-0.6,0.4l-0.5-0.4c-0.3-0.2-7-5.1-15,3.5L229.5,47.6z M254.8,31.4c-0.2-0.3-0.6-0.6-1.2-0.9
		c-2.9-1.1-5.9-0.9-9,0.6c-3.8,1.8-7.2,5.2-9.4,8.4c6.2-4,11.3-1.7,13-0.7C251.5,36.6,255.5,33,254.8,31.4L254.8,31.4z"/>
	<path class="st1" d="M255.9,56.5c0,0-0.4,9.5-13.3,10.1c5.3,2,21.1,2.6,24.8-7.8C269.7,52.2,255.9,56.5,255.9,56.5z"/>
	<path class="st6" d="M238,65.9l4.6-0.2c11.9-0.6,12.4-8.8,12.4-9.2v-0.7l0.6-0.2c1.8-0.6,11-3.2,12.8,0.6c0.4,0.8,0.4,1.8-0.1,2.9
		c-1.2,3.4-3.6,5.9-7.3,7.6c-6.5,3-15.1,2.2-18.8,0.8C242.2,67.5,238,65.9,238,65.9z M256.7,57.2c-0.3,1.9-1.9,7.4-8.9,9.5
		c3.8,0.3,8.6,0,12.4-1.8c3.1-1.4,5.2-3.6,6.3-6.5c0.2-0.6,0.3-1.2,0.1-1.5C265.9,55.4,260.6,56.1,256.7,57.2z"/>
	<path class="st1" d="M295.5,28.3c0,0-18.2-7.8-40.4,3.6c-5.8,3-9.9,8.7-11.9,12.1c-0.6,0-1.2,0.1-1.8,0.4c-1.4,0.7-2.1,1.8-1.6,2.9
		l5.2,11.2c0.5,1.1,1.8,1.3,3.2,0.6c0.6-0.3,1.2-0.7,1.6-1.2c4.4,0.3,12.5,0.5,16.9-1.2C289.3,47.7,295.5,28.3,295.5,28.3z"/>
	<path class="st6" d="M244,59l-5.2-11.2c-0.7-1.6,0.1-3.3,2.1-4.2c0.6-0.3,1.1-0.4,1.7-0.5c2.1-3.4,6.2-9,12.1-12
		c22.4-11.5,40.5-4,41.2-3.7l0.8,0.3l-0.3,0.8c-0.1,0.2-6.5,20-29.4,29.1c-4.4,1.8-12.3,1.6-16.9,1.3c-0.4,0.4-1,0.8-1.6,1.1
		C246.5,61,244.7,60.6,244,59L244,59z M294.3,28.8c-3.8-1.3-19.9-5.7-38.8,3.9c-5.7,2.9-9.7,8.6-11.6,11.7l-0.3,0.5h-0.5
		c-0.4,0-1,0.1-1.4,0.3s-1.6,0.8-1.2,1.6l5.2,11.2c0.4,0.8,1.5,0.4,2,0.2s1-0.6,1.3-0.9l0.3-0.4h0.5c4.4,0.3,12.3,0.5,16.5-1.1
		C285.6,48.2,292.8,32.6,294.3,28.8z"/>
	<path class="st6" d="M249.6,52.8L236,55.6l10.9-8.7l-0.5-1l-16.1,12.3l19.8-4.3L249.6,52.8z"/>
	<path class="st1" d="M236,55.6l10.9-8.7l2.7,5.9L236,55.6z"/>
	<path class="st1" d="M239.5,54l7.8-6.2l1.9,4.2L239.5,54z"/>
	<g>
		<ellipse transform="matrix(0.907 -0.4211 0.4211 0.907 10.4518 120.3326)" class="st1" cx="277.7" cy="36.5" rx="5.9" ry="5.9"/>
		<path class="st6" d="M271.5,39.4c-1.6-3.4-0.1-7.5,3.3-9.1s7.5-0.1,9.1,3.3s0.1,7.5-3.3,9.1C277.1,44.3,273.1,42.8,271.5,39.4z
			 M282.2,34.4c-1.1-2.5-4.1-3.5-6.6-2.4s-3.5,4.1-2.4,6.6s4.1,3.5,6.6,2.4C282.2,39.8,283.3,36.9,282.2,34.4z"/>
	</g>
	<path class="st6" d="M275.7,34l-0.4-0.9c2.6-1.2,5.5,0.3,6.7,2.9l-0.9,0.4C279.9,33.9,277.4,33.2,275.7,34L275.7,34z"/>
</g>
</svg>
