<svg id="Слой_1" xmlns="http://www.w3.org/2000/svg" viewBox="0 0 78 128"><style>.st0{fill:none;stroke:#ee3324;stroke-width:2;stroke-linecap:round;stroke-linejoin:round}</style><title>logo-enterprise</title><g id="Page-1"><g id="homepage-v3.5" transform="translate(-661 -3406)"><g id="_features" transform="translate(169 2549)"><g id="features-enterprise" transform="translate(1 858)"><g id="blurb" transform="translate(20)"><g id="logo" transform="translate(135)"><path id="logo-enterprise" class="st0" d="M367 47.4V16l9-5.2 9 5.2v21l9 5.2v20.9m-36 7.7V52.7l9-5.2m-9 47l9 5.2v10.5m-27.1-11V84l9-5.2 9 5.2v10.5m9.1-47.1v41.9-41.9zm0-31.4l9 5.2 9-5.2m-9 0V.3 16zm0 5.2v98.6-98.6zm9.1 15.8v18.4V37zm9 65.7V73.6v29.1zm-38.8-29.2c0 1.5 1.2 2.7 2.7 2.7 1.5 0 2.7-1.2 2.7-2.7 0-1.5-1.2-2.7-2.7-2.7-1.5 0-2.7 1.2-2.7 2.7zM385 86.6c-1.5 0-2.7 1.2-2.7 2.7 0 1.5 1.2 2.7 2.7 2.7 1.5 0 2.7-1.2 2.7-2.7.1-1.5-1.2-2.7-2.7-2.7zm-45.1 12.6c-1.5 0-2.7 1.2-2.7 2.7 0 1.5 1.2 2.7 2.7 2.7s2.7-1.2 2.7-2.7c0-1.4-1.2-2.7-2.7-2.7zm36.1 20.6c-1.5 0-2.7 1.2-2.7 2.7 0 1.5 1.2 2.7 2.7 2.7 1.5 0 2.7-1.2 2.7-2.7 0-1.4-1.2-2.7-2.7-2.7zm18.1-17.1c-1.5 0-2.7 1.2-2.7 2.7 0 1.5 1.2 2.7 2.7 2.7s2.7-1.2 2.7-2.7c0-1.4-1.2-2.7-2.7-2.7zm-9-47.4c-1.5 0-2.7 1.2-2.7 2.7 0 1.5 1.2 2.7 2.7 2.7 1.5 0 2.7-1.2 2.7-2.7 0-1.4-1.2-2.7-2.7-2.7zm27.1 49.7V94.5l-9-5.2V68.4l-9-5.2-9.1 5.3v18.2m-45.2-2.6l9 5.2 9-5.2m-9 5.2v20.9-20.9zm0-5.2V68.4v15.7zm42.5 22.5l-6.3 3.6 6.3-3.6z"/></g></g></g></g></g></g></svg>