<svg xmlns="http://www.w3.org/2000/svg" width="116.22" height="70.87"><path d="M34.55 33.4c.4 0 .7.1.9.32s.36.5.44.8c.07.3.1.62.13.94s0 .58 0 .78c0 .63 0 1.57-.02 2.8l-.08 4.15-.12 4.75-.1 4.77c-.05 1.52-.07 2.9-.08 4.12v2.8c0 .3-.04.63-.08.96-.04.33-.13.63-.27.9s-.32.5-.56.7-.55.25-.95.25h-.64c-.33 0-.7 0-1.1.02l-1.15.02h-.67c-.26 0-.46-.1-.6-.28s-.26-.42-.32-.73c-.07-.32-.1-.67-.1-1.08v-1.28l-.03-4.32V39.45c.02-.5-.04-.85-.2-1.06-.14-.2-.5-.32-1.06-.34-1.3-.04-2.3-.05-3.02-.03-.7.02-1.22.18-1.53.48-.32.3-.5 2.63-.55 6.98-.05 4.34-.08 7.13-.08 8.34v1.65l.03 1.95v1.94l.03 1.67c.02.5-.07.85-.28 1.1s-.6.36-1.18.36h-1.07c-.34 0-.7-.03-1.04-.05h-1.25c-.36-.02-.66-.1-.9-.2s-.44-.33-.57-.58c-.13-.25-.2-.62-.2-1.1-.04-.9-.07-2.16-.08-3.75l-.03-5.2-.02-5.72V34.84c0-.5.12-.83.35-1.04s.58-.34 1.06-.4c.46-.07 6.13-.07 17 0zM18.3 40c-.05-.3-.03-.62.06-.92.1-.3.17-.6.27-.92.1-.33.13-.67.12-1.03s-.14-.75-.4-1.17c-.28.83-.4 1.56-.34 2.2.07.62.16 1.23.3 1.84zm15.29 19.05c0-.26 0-.52-.03-.8s-.25-.42-.65-.46c-.2 0-.37.02-.48.1-.1.05-.16.15-.2.27-.03.12-.05.25-.05.4s-.03.27-.07.4c0 .1-.02.2-.05.3s-.05.22-.05.32.04.16.12.2c.07.07.23.1.48.1.26-.03.48-.1.67-.2s.3-.34.3-.63zm16.38-2.42c.56 0 .94.13 1.14.38s.3.7.33 1.28c0 1.1-.04 1.94-.13 2.53-.1.6-.3 1-.6 1.26-.32.24-.8.37-1.4.4l-2.53.02a23 23 0 0 0-1.67 0H43l-2.1.02s-1.23 0-1.68-.02c-.4 0-.7-.04-.94-.12s-.42-.23-.55-.43-.23-.47-.3-.8-.13-.76-.2-1.26c0-.1-.03-.48-.03-1.16v-6.25c0-1.34 0-2.72.02-4.15s.02-2.84.02-4.24v-3.84s.03-2.14.02-2.94l-.02-1.6c0-.27 0-.54.03-.82s.07-.53.15-.75c.07-.2.2-.4.34-.53s.36-.2.6-.2h2.8l3.22.02h3.17l2.7.03c.68 0 1.04.4 1.08 1.2.02.03.04.1.04.18-.03 1.3-.06 2.28-.12 2.95-.05.67-.18 1.17-.4 1.48-.2.32-.52.5-.95.55-.44.04-1.03.07-1.8.1h-1.8c-.77 0-1.38.04-1.84.06-.45.02-.8.13-1 .33s-.36.53-.4 1c-.05.48-.05 1.2 0 2.14.06.33.18.53.34.64.17.1.38.15.63.15l1.4.02s.9 0 1.34.03c.87.02 1.44.2 1.7.53.28.33.4.93.4 1.82 0 .42-.02.84-.04 1.26-.02.42-.1.8-.24 1.12-.14.33-.36.6-.67.8-.3.2-.75.27-1.33.23l-2.07-.07c-.48-.02-.8.08-1 .28-.2.2-.3.55-.33 1.05-.03.5-.03 1.24 0 2.23.03.5.03.95.02 1.34s.02.72.1.98c.07.27.2.46.4.6.2.13.53.2.97.2l2.68.05c.87 0 1.73 0 2.6-.02zm-1.77-19.8c.02.1 0 .2-.02.3s-.05.22-.05.32.03.17.1.22.2.08.45.08c.3 0 .52-.06.7-.2s.28-.33.3-.62c.02-.27 0-.54-.03-.8-.04-.26-.25-.42-.63-.46-.25-.02-.42 0-.5.06-.1.07-.15.16-.18.3-.03.1-.05.24-.06.4 0 .14-.04.27-.08.4zm14.15-3.31c.53.1 1.07.27 1.63.48.55.2 1.08.47 1.6.8.5.32.96.7 1.38 1.1s.76.85 1.02 1.37c.48 1 .84 2.14 1.06 3.44.22 1.3.28 2.6.17 3.93-.1 1.3-.4 2.55-.88 3.72-.48 1.17-1.18 2.1-2.1 2.8-.3.3-.74.56-1.3.8s-1.2.42-1.86.57c-.66.16-1.3.27-1.94.35-.63.08-1.15.1-1.54.08-.58-.04-.9.06-1 .32-.1.25-.1.64-.05 1.17-.04 1-.05 1.94-.05 2.82v2.23s0 1.26.05 1.6c0 .37-.04.65-.1.83s-.15.3-.23.38c-.07.08-.16.12-.25.12h-5.03c-.18 0-.3-.15-.36-.46-.06-.3-.1-.58-.1-.83v-5.18c0-1.23 0-2.58.02-4.05l.02-4.4v-8.1l.05-2.77v-1.28l.1-1c.05-.3.3-.52.74-.63.5-.1 1.17-.2 2-.28.85-.07 1.7-.12 2.6-.13.88 0 1.72 0 2.5.04s1.4.1 1.85.18zm.96 12.88c.28-.42.45-.94.5-1.56.07-.62.07-1.25 0-1.9-.05-.63-.18-1.24-.37-1.8s-.42-1.05-.7-1.43c-.32-.4-.7-.75-1.2-1.06-.48-.32-.95-.46-1.4-.42-.45.02-.8.1-1.03.2-.23.13-.4.32-.5.56-.1.25-.16.56-.17.93l-.05 1.33c-.02.25-.04.63-.05 1.15l-.05 1.67s-.03 1.17-.03 1.7v1.18c0 .26.03.5.08.76s.25.36.58.38c.43.05.85.06 1.26.05s.8-.07 1.17-.18c.37-.1.73-.28 1.07-.52s.65-.6.9-1.03zm-.15-9.2c-.22-.52-.43-.92-.64-1.22-.2-.3-.45-.5-.72-.63-.28-.12-.6-.16-.95-.13-.35.04-.78.15-1.3.32.6.27 1.2.53 1.77.8l1.85.85zM83.7 56.63c.57 0 .94.13 1.14.38s.3.7.32 1.28c0 1.1-.04 1.94-.13 2.53-.1.6-.3 1-.6 1.26-.32.24-.8.37-1.4.4l-2.53.02a23 23 0 0 0-1.67 0h-2.1l-2.1.02s-1.23 0-1.67-.02c-.4 0-.72-.04-.95-.12s-.4-.23-.54-.43-.23-.47-.3-.8-.13-.76-.2-1.26c0-.1-.02-.48-.02-1.16v-10.4l.03-4.24c0-1.4 0-2.68.02-3.84s0-2.14 0-2.94l-.03-1.6c0-.27 0-.54.03-.82s.07-.53.15-.75c.07-.2.2-.4.34-.53s.35-.2.58-.2h2.8l3.23.02h3.18l2.7.03c.68 0 1.04.4 1.08 1.2.03.03.04.1.04.18-.02 1.3-.06 2.28-.12 2.95-.05.67-.18 1.17-.4 1.48-.2.32-.52.5-.95.55-.44.04-1.03.07-1.8.1h-1.8c-.77 0-1.38.04-1.83.06-.46.02-.8.13-1.02.33s-.35.53-.4 1c-.03.48-.03 1.2 0 2.14.07.33.2.53.36.64.16.1.37.15.62.15l1.4.02s.9 0 1.35.03c.87.02 1.44.2 1.7.53.3.33.4.93.4 1.82 0 .42-.02.84-.04 1.26-.02.42-.1.8-.24 1.12-.13.33-.35.6-.66.8-.3.2-.75.27-1.33.23l-2.07-.07c-.47-.02-.8.08-1 .28-.2.2-.3.55-.33 1.05-.03.5-.03 1.24 0 2.23.03.5.03.95.02 1.34s.02.72.1.98c.08.27.2.46.4.6.2.13.53.2.97.2l2.7.05c.86 0 1.72 0 2.58-.02zm-1.77-19.8c.02.1 0 .2-.02.3s-.04.22-.04.32.04.17.1.22.2.08.45.08c.3 0 .54-.06.7-.2s.3-.33.3-.62c.03-.27.02-.54-.02-.8s-.25-.42-.63-.46c-.25-.02-.4 0-.5.06-.1.07-.14.16-.18.3-.03.1-.05.24-.06.4 0 .14-.03.27-.07.4zm5.67 25.61c-.47-.07-.83-.2-1.06-.42-.23-.2-.35-.55-.35-1.04V44.2l.04-5.2c0-1.58.04-2.83.08-3.73 0-.5.07-.86.2-1.1s.33-.45.57-.57c.23-.13.53-.2.9-.2.36-.02.77-.02 1.23-.02.36-.02.7-.04 1.04-.04h1.08c.58 0 .97.13 1.18.37.2.25.3.6.27 1.1v1.67c-.02.63-.03 1.28-.03 1.94 0 .67 0 1.32-.02 1.96s0 1.18 0 1.65c0 1.22 0 4 .06 8.36.06 4.34.24 6.67.56 6.96.32.3.83.46 1.53.48.7.02 1.7 0 3-.03.58-.02.94-.14 1.08-.33s.2-.56.2-1.06V41c0-1.42 0-2.85.02-4.3v-1.3c0-.4.03-.75.1-1.06s.17-.55.3-.73c.16-.17.36-.26.62-.26h.68l1.15.02 1.1.02h.64c.4 0 .7.1.95.26.25.18.43.4.57.68.13.28.22.58.27.9.03.34.05.66.05.97 0 .63 0 1.56.02 2.8 0 1.22.03 2.6.06 4.1l.1 4.78c.06 1.66.1 3.25.13 4.77l.1 4.13.03 2.82-.03.77c0 .32-.06.64-.14.95-.08.3-.23.57-.44.8-.22.2-.5.32-.9.32-10.86.06-16.53.06-17 0zm.46-4.78c-.06.63.06 1.36.35 2.2.26-.43.4-.82.4-1.18s-.03-.7-.12-1.03l-.27-.93c-.08-.3-.1-.6-.05-.9-.13.6-.23 1.2-.3 1.84zm15.3-21.52c-.2-.12-.42-.2-.68-.2-.25 0-.4 0-.48.07s-.12.14-.12.24c0 .1.02.2.05.3.03.12.05.22.05.3.04.14.07.28.07.42s0 .28.04.4c.03.12.1.2.2.28.1.07.26.1.47.07.4-.03.62-.2.65-.46.03-.27.04-.53.02-.8 0-.28-.1-.48-.3-.6zm-.02 24.63c0-2.3.3-3.44.93-3.43l1.82.02c1-.06 1.72.1 2.13.52.4.4.6 1.12.6 2.13v5.43c-.02.63-.02 1.22-.02 1.77 0 .72-.15 1.25-.47 1.56-.32.32-.87.48-1.64.48h-1.92c-.47 0-.83-.1-1.06-.33-.23-.2-.37-.6-.4-1.2s-.05-1.45 0-2.63c0-.57.02-2 .02-4.3z" fill="#EE3224"/><path fill="#359244" d="M33.63 16.8c-1 1.46-3.23 1.56-4.82.77-1.58-.77-2.75-2.2-4.02-3.43a22.656 22.656 0 0 0-10.35-5.7c.17-.52.74-.83 1.3-.87.54-.03 1.08.15 1.6.34 3.22 1.2 6.55 2.9 9.93 2.23 2.26-.44 4.6-1.9 6.7-.9 1.1.53 1.84 1.77 1.77 3-.07 1.24-.94 2.4-2.1 2.8l.26.66"/><path fill-rule="evenodd" clip-rule="evenodd" fill="#EE3224" d="M46.72 11.44c-2.1 4.47-.58 10.1 2.88 13.65 3.45 3.53 8.47 5.2 13.4 5.54 4.95.35 9.88-.5 14.76-1.37 5.2-.9 10.54-1.87 15.13-4.5 2.66-1.55 4.98-3.62 7.3-5.67 3.72-3.3 5.26-6.47 9-9.8-2.22-2.7-1.38-2.12-4.82-1.56-3.44.56-6.47 3.9-9.32 5.92-15.6 11.03-22.47 7.5-41.5-.65-.1.9-.22 1.76-.34 2.64"/><path d="M28.05 26.47c-.13.72-.45 1.28-1.2 1.42-.74.13-1.26-.22-1.65-.82-.97-1.5-1.4-3.15-1.1-4.87.3-1.6.1-3.28.66-4.85.07-.18-.02-.32-.13-.4-1.78-1.53-2.96-3.7-5.16-4.76-1.88-.93-3.8-1.62-5.9-1.94-1.68-.26-2.86.42-3.8 1.75-1 1.42-1.56 3.02-2.06 4.66-.14.5-.15.83.57.9 1.1.15 1.6 1.4 1.1 2.4-.55 1.1-2.3 1.9-3.48 1.65-.23-.03-.42-.06-.56-.27-.77-1.2-1.54-2.4-1.6-3.9 0-.67-.24-1.32-.17-2.02.25-2.3 1.5-4 3.24-5.42.92-.74 1.84-1.47 2.8-2.17 1.6-1.18 3.38-1.74 5.37-1.75.92 0 1.7.44 2.43.83 2.33 1.25 4.9 1.75 7.42 2.32 1.28.3 2.53-.2 3.68-.75 1.83-.86 3.72-1.05 5.68-.65.5.1.87.4 1.13.78.22.32.4.47.7.16 1.38-1.47 3.14-1.3 4.87-1.1 1.3.13 2.58.23 3.87.4 2.06.28 3.65 1.5 5.4 2.4 3.12 1.68 6.33 3.12 9.76 4.16 3.68 1.1 7.4 2.07 11.13 2.87 3.75.8 7.54 1.5 11.43 1 3.03-.38 5.9-1.14 8.48-2.83.27-.18.7-.24.6-.8-.08-.4.37-.4.67-.46 1.16-.2 2.22-.52 2.43-1.93.04-.3.32-.4.57-.37.9.1 1.52-.44 2.17-.9 1.82-1.33 3.72-2.52 5.67-3.63.5-.3 1.06-.48 1.6-.48 1.06 0 1.98-.46 2.93-.8 1.93-.68 4.1.7 4.33 2.72.13 1.1-.2 1.98-.7 2.88-.25.42-.57.8-.55 1.34 0 .15-.06.4-.15.43-1.35.45-1.56 1.82-2.18 2.8-1.96 3.12-4.8 5.34-7.6 7.6-2.54 2.07-5.16 4.06-7.9 5.86-5.1 3.33-10.65 5.24-16.84 5.06-2.57-.07-5.14.2-7.72.22-1.8 0-3.6.08-5.38.2-.97.07-1.87-.35-2.87-.38-3-.1-6-.07-9 .04-1.76.07-3.47-.27-5.17-.66-1.44-.33-2.87-.27-4.34-.24-2.12.04-4.3.24-6.26-.93-.4-.23-.8-.47-1.1-.83-.08-.06-.16-.2-.2-.18-1.06.2-1.2-.5-1.33-1.26 0-.12-.2-.27-.33-.3-.78-.16-1.1-.7-1.28-1.4-.07-.24-.27-.7-.73-.18-.36.4-.57-.15-.57-.35-.02-1.15-.9-1.6-1.65-2.23zM18.55 9.2c-1.3-.82-2.6-1.66-4.27-1.45 1.45.4 2.86.92 4.27 1.42 1.56.7 2.98 1.64 4.4 2.6.6.38.95 1.13 1.66 1.3 1.24.26 1.6 1.35 2.22 2.18.15.2.14.5-.1.67-.24.2-.4-.06-.54-.18-.56-.47-1.1-.96-1.66-1.44.87 1.02 1.5 2.18 2.28 3.24.23.3.42.54.16.9-.4.5-.55-.08-.8-.2-.14-.06-.26-.16-.48-.3-.16 1.87-.44 3.66-.4 5.44 0 1.02.1 2.2 1.14 2.9-.4-.98-.43-2-.2-3 .48-2.1.86-4.3 3.5-4.9.54-.12.7-.4.36-1-.28-.48-.7-.94-.5-1.62.57-2.26 1.4-4.3 3.82-5.2.24-.1.45-.3.53-.6-.4-.26-.73-.2-1.14-.04-3.52 1.44-6.96 2.73-10.65.24-.92-.63-2.32-.9-3.6-.97zm41.96 8.72c-.93-.6-2.05-.7-2.95-1.18-1.5-.8-3.23-.8-4.7-1.87-1.42-1.02-3.4-1.28-5.1-1.9-1.5-.53-3.1-.96-4.33-2-.7-.6-1.33-.27-2-.24-.2 0-.26.16-.18.33.3.64.05 1.28 0 1.9-.3 2.76.17 5.5.28 8.22 0 .42.2.74.5 1.06 1.35 1.54 3 2.74 4.5 4.1.96.86 2.2 1.4 2.9 2.56 1.15-1.2 2.2.33 3.33.15-.02-.1-.02-.2-.07-.25-.37-.35-.3-.75-.05-1.1.28-.37.7-.23 1.02-.06.9.47 1.94.4 2.9.52 3.45.42 6.9.88 10.33 1.47.53.1 1.04.36 1.48-.22.18-.23.46-.03.7 0 2.48.44 4.98.4 7.48.25 2.67-.15 5.34-.24 8-.55.64-.07 1.23 0 1.2.9 1.74-.92 6.27-4.42 6.72-5.26l-.77.52L87.8 28c-.52.36-1.16.7-1.57-.05-.37-.68.27-.96.78-1.23.53-.27 1.04-.57 1.53-.9 2.26-1.5 4.4-3.2 6.74-4.6.24-.15.6-.2.7-.7-.57.25-1.1.03-1.63.04-1.37.02-2.8.47-4.1-.3-.2-.1-.34.1-.5.16-.94.36-1.88.75-2.84 1.07-1.57.5-3.18.92-4.84 1.05-.98.08-1.96.25-3.08-.26l1.44-.36c-3.87-.33-7.77-.08-11.5-1.44 0 .92-.6 1.42-1.52 1.28-2.52-.4-5.07-.7-7.54-1.44-.65-.2-1.38-.37-1.6-1.2.45-.28.92.16 1.35-.15-1.44-.66-3.2-.58-4.4-2.1l5.3 1.02zM40.37 10.9h-.33c-.78-.06-1.02.3-1.02 1.08.04 2.76.57 5.5.6 8.26 0 .16-.12.56.3.5.47-.07.26-.4.24-.66-.2-2.95-.58-5.9.2-8.84.03-.1 0-.22.02-.35zm59.15 8.03c-2.93-.97-6.1-.72-7.73.54.18-.02.34-.05.5-.05 1.82 0 3.67-.8 5.47.2.05.02.2-.03.25-.1.36-.36.9-.36 1.5-.6zm-2.24-2c0 .08 0 .15.02.23.77.07 1.54.13 2.3.22.8.1 1.6.22 2.38.35.24.04.5.05.52-.22.03-.34-.32-.2-.5-.22-.72-.12-1.45-.22-2.2-.27-.83-.05-1.68-.04-2.52-.06zM44.7 10.7c.85.47 4.25 1.52 4.85 1.5-1.85-.94-4.45-1.74-4.86-1.5zm-8.1 4.67l.08-4.17h-.27c-.06 1.4-.23 2.77.2 4.17zm4.92 8.13c.4.86 1.13 1.38 1.98 1.76l-1.98-1.76zM6.62 12.2c-.65.44-.9 1.16-1.3 1.8.82-.32.7-1.3 1.3-1.8zm64.92 26.33c-.67.22-1.36.26-2.05.28-3.88.12-7.75.23-11.62.15-1.95-.04-3.9-.13-5.86-.25-.66-.05-1.8-.3-1.7-.75.17-.67 1.17-.3 1.8-.26 4.37.27 8.72.65 13.1.5 1.92-.08 3.85 0 5.77.04.2 0 .44-.07.54.3z"/><path d="M80.5 17.2c-1.93-.16-3.68-.5-5.43-.84-3.37-.7-6.75-1.28-10.06-2.24-.47-.14-.92-.36-1.37-.57-.23-.1-.4-.3-.3-.6.1-.23.35-.26.57-.24.18.02.37.07.54.12 4.66 1.44 9.44 2.33 14.14 3.56.62.17 1.28.27 1.93.82zm28.26 4.23c-1.3 1.73-2.85 3.2-4.57 4.47-3.43 2.52-6.94 4.9-10.53 7.18-.7.45-1.44.85-2.26 1.08-.24.07-.52.1-.6-.22-.1-.3.22-.33.4-.4 2.72-1.17 5.04-3 7.45-4.65 2.24-1.56 4.56-3 6.7-4.7l3.4-2.77zM102.7 5.22l-3.37 1.7c-1.8.9-3.57 1.83-5.27 2.9-.2.14-.47.5-.7.12-.17-.26.1-.52.28-.72.45-.5 1.06-.75 1.64-1.04 2.36-1.2 4.72-2.46 7.4-2.96zM25.4 7.57c-2.48-.08-4.97-.16-7.16-1.6-.2-.1-.47-.25-.37-.55.08-.22.35-.17.5-.1 2.3.88 4.78 1.18 7.04 2.25zm6.93 29.45c-.8.02-1.27-.5-1.77-.9-1.12-.93-2.18-1.93-3.26-2.9a2.56 2.56 0 0 1-.36-.44c-.23-.32-.6-.75-.25-1.05.4-.35.68.2.92.46 1.43 1.5 3.15 2.7 4.4 4.4l.3.42zm72.32-9.84c-1.65 2.2-3.66 3.9-5.97 5.27-.13.07-.26.17-.4.2-.34.1-.8.5-1 .13-.2-.38.33-.58.64-.75 2.1-1.16 3.82-2.84 5.76-4.2.32-.23.65-.44.97-.65zM20.2 15.5c-1.68-.68-3-1.6-4.52-2.04-.68-.2-1.36-.4-2.04-.62-.24-.08-.62-.13-.48-.54.1-.3.42-.42.7-.34 1.64.43 3.3.87 4.7 1.94.54.42 1.24.7 1.64 1.6zm43.47 24.96c-.23.15-.32.27-.42.27-2.22 0-4.4.65-6.64.2-.22-.06-.62.03-.58-.42.03-.3.32-.3.57-.36 1.24-.2 5.7-.03 7.07.32zm11.48-26.72c.16.07.26.22.17.36-.1.18-.32.14-.5.1-.98-.15-1.96-.3-2.93-.48-.56-.1-1.1-.2-1.67-.15-.53.06-.92-.3-.9-.8 0-.65.56-.5.9-.4 1.64.48 3.34.7 4.92 1.37zM43.56 36.97c.14.12.36.2.28.43-.1.23-.32.14-.5.13-1.8-.15-3.63-.3-5.44-.47-.2-.02-.5 0-.5-.3.02-.24.26-.36.48-.4.27-.04.55-.1.83-.06 1.33.12 2.66.27 3.98.43.3.03.62.03.88.24zM5.1 24.6c-1.7-.77-3.02-1.82-4.08-3.16-.2-.26-.47-.72-.07-1 .4-.3.65.12.88.4.8 1.05 1.85 1.83 2.72 2.8.2.22.44.42.54.96zM111.14 1.72c.95-.1 1.52.24 2.05.77.85.85 1.63 1.75 1.88 3 .05.25.05.55-.2.66-.34.17-.36-.24-.46-.42-.82-1.5-2.04-2.68-3.28-4.02zM46.37 4.13c-.58.25-.98-.1-1.4-.2-1.3-.3-2.58-.6-3.9-.68-.2 0-.42.03-.47-.2-.06-.28.18-.4.37-.46.23-.1.48-.17.72-.16 1.4 0 2.73.4 4 .96.3.13.45.4.67.73zm1.03 2.13c-2.43-.83-4.98-.87-7.66-1.12 1.14-.93 5.32-.27 7.66 1.12zM28.2 37.81c-.7.13-.92-.42-1.26-.72-.65-.58-1.35-1.12-1.7-1.96-.1-.24-.15-.5.07-.7.2-.17.46-.12.6.05.8 1.07 1.85 1.98 2.3 3.34zM23.44 4.76c.12.1.3.13.3.3-.03.27-.26.25-.44.24-1.2-.05-2.3-.38-3.43-.76-.2-.07-.3-.24-.26-.44.05-.24.25-.25.44-.23 1.2.1 2.33.35 3.4.9zm74.4.67c-.97 1-2.3 1.4-3.38 2.2-.1.06-.23.1-.34 0a.343.343 0 0 1-.07-.43c.08-.16.2-.33.33-.43 1.04-.72 2.18-1.2 3.46-1.34zm6.14 25.15c-.77 1.35-1.76 2.06-2.82 2.66-.3.17-.48 0-.35-.35.07-.18.1-.4.23-.5.88-.6 1.63-1.4 2.95-1.82zM38.2 38.2c.1-.05.26-.2.43-.22.78-.15 1.54.05 2.3.15.16.02.27.15.3.3.03.2-.12.27-.28.3-.86.1-1.73.2-2.58-.03-.24-.06-.42-.16-.16-.5zm46.4-.08c-1.38.47-2.77.9-4.3.88l4.22-1.2.1.32zm7.84-25.32c-.6.24-1.22.4-1.96-.04.77-.26 1.37 0 1.96.05zm-45.8 7.33l3.1.44c-.52-.88-.98-1.66-1.46-2.43-.14-.2-.34-.4-.2-.67.14-.35.52-.6.8-.48.76.28 1.58-1.36 2.28.12.52 1.12 1.17 2.18 1.77 3.26.08.16.2.3.34.52.12-.5-.22-.73-.33-1.05-.15-.38-.2-.75.25-.95.38-.17.72-.1.97.27.07.1.16.2.2.33.5 1.9 1.84 2.87 3.67 3.3.14.04.3.1.43.16.02 0 .03.05.1.18-.82.1-1.55-.22-2.3-.26-.03.06-.08.1-.1.16-.05.4.32 1-.25 1.14-.5.13-.6-.52-.86-.83-.25-.3-.35-.72-.88-.96.3.67.6 1.2.8 1.78.1.3.22.8-.18.98-.38.17-.45-.33-.61-.55-.6-.8-1.17-1.66-1.8-2.46.4 1.16 1.2 2.1 1.8 3.13.35.58.98 1.4.48 1.8-.4.32-.87-.67-1.22-1.1-.96-1.22-1.83-2.5-2.7-3.8-.24-.36-.5-.57-.93-.62-1.2-.1-2.2-.68-3.2-1.42zm21.49 3c.17.2.36.33.44.52.16.37.5.4.77.38.43-.06.03-.38.1-.6.12-.32.23-.65.6-.76.36-.1.56.1.78.36.6.7 1.08 1.48 1.14 2.45 0 .22 0 .46-.25.54-.2.07-.3-.16-.42-.3-.37-.36-.5-1.02-1.25-.94-.36.05-.63.06-.36.54.36.64.7 1.3.78 2.06.03.32.25.17.4.17 3.98-.15 7.96-.2 11.92-.57.12 0 .25-.03.36 0 .44.06 1.1.03 1.12.54 0 .33-.62.45-1.05.55-2.8.66-5.66.33-8.48.67-1.2.14-2.4.18-3.6.27-.6.06-1.05-.25-1-.8.04-.57-.3-.84-.53-1.22-.94-1.6-2.24-2.5-4.14-2.44-.27 0-.7.02-.7-.3 0-.44.47-.27.75-.3.38-.04.75-.03 1.12-.05.28-.02.5-.05.57-.44.1-.63.5-.6.92-.33zm-2.99 4.3c.3.1.4.2.4.4-.04.26-.27.2-.43.23-1.16.13-2.33 0-3.5-.13-1.58-.17-3.18-.32-4.77-.5-.46-.05-1.06-.17-1.02-.72.06-.62.66-.63 1.18-.56 2.32.3 4.65.6 6.97.92.45.07.88.27 1.2.37zm-15.54-.85c-1.44-.36-2.46-1.32-3.6-2.08-.86-.6-1.68-1.27-2.5-1.93-.3-.26-.43-.65-.1-.96.25-.23.55-.54.97-.18 1.7 1.47 3.57 2.75 4.93 4.6.12.17.2.37.3.56zm-3.03-12.61c.22-.46.6-.37.96-.27 1.4.42 2.77.84 4.15 1.3.37.13.98.34.7.87-.2.42-.67.58-1.26.3-1.52-.7-3.2-1.13-4.55-2.2z"/><path d="M83.15 25.88c-2.46.46-4.9.7-7.33 0v-.27c2.45.1 4.9.2 7.33.28zM28.9 12.38c.24.16.4.27.37.5-.04.2-.2.27-.4.27-.5.02-1 .07-1.48.06-.24 0-.55 0-.6-.33-.03-.32.2-.5.48-.6.6-.2 1.15-.03 1.62.1z"/></svg>