<svg id="Layer_1" xmlns="http://www.w3.org/2000/svg" viewBox="0 0 600 450"><style>.st0{fill:#FF8278;} .st1{fill:#EE3324;}</style><path class="st0" d="M268 216.9c-1.3 0-2.5-.9-2.9-2.2-2.1-7.2-8.6-12.4-16.1-12.9-1.2-.1-2.3-.9-2.7-2.1-3.9-12.4-15.2-20.7-28.2-20.7-8 0-15.4 3.1-21 8.8-.8.8-1.9 1.1-2.9.8-1.1-.3-1.9-1.1-2.2-2.1-3.8-14.2-16.8-24.2-31.5-24.2-15.2 0-28.3 10.3-31.7 25.1-.4 1.5-1.8 2.5-3.3 2.3-.8-.1-1.5-.1-2.1-.1-4.2 0-8.2 1.6-11.3 4.4-.8.7-1.9 1-2.9.7-4.7-1.3-9.3-.3-13 2.4-.8.6-1.7.7-2.6.5-.9-.3-1.6-.9-2-1.8-3-7.5-10.2-12.3-18.3-12.3-10.9 0-19.7 8.8-19.7 19.7 0 3.2.8 6.3 2.3 9.2.5.9.5 2.1-.1 3-.5.9-1.5 1.5-2.6 1.5H8c-1.7 0-3-1.4-3-3s1.4-3 3-3h40.6c-.8-2.5-1.2-5-1.2-7.6 0-14.2 11.6-25.8 25.8-25.8 9.3 0 17.8 5 22.3 12.9 4.1-2.1 8.9-2.8 13.6-1.9 4.1-3.2 9.1-5 14.3-5 4.9-16.2 19.8-27.3 37-27.3 15.9 0 30 9.7 35.8 24.1 6.2-4.8 13.8-7.4 21.8-7.4 15 0 28.1 9.2 33.4 23.1 9.1 1.4 16.8 8.1 19.5 17 .5 1.6-.4 3.3-2 3.8-.3.1-.6.1-.9.1zM441.8 194.1c-9.3 0-18.6-3.5-25.7-10.6-14.2-14.2-14.2-37.3 0-51.5 14.2-14.2 37.3-14.2 51.5 0 14.2 14.2 14.2 37.3 0 51.5-7.1 7.1-16.5 10.6-25.8 10.6zm0-66.7c-7.8 0-15.5 3-21.5 8.9-11.8 11.8-11.8 31.1 0 42.9 11.8 11.8 31.1 11.8 42.9 0 11.8-11.8 11.8-31.1 0-42.9-5.9-5.9-13.6-8.9-21.4-8.9z"/><ellipse transform="rotate(-45 439.667 172.782)" class="st0" cx="439.7" cy="172.8" rx="6.1" ry="6.1"/><path class="st0" d="M416.1 179.2l4.3 4.3 10.2-10.2c-.1-2.5.7-5 2.6-6.9 1.9-1.9 4.4-2.8 6.9-2.6l27.4-27.4-4.3-4.3-47.1 47.1zM453.7 165.3l-5.2 5.2c.8 3 0 6.3-2.4 8.7-2.3 2.3-5.7 3.1-8.7 2.4l-6.3 6.3c-1.2 1.2-1.2 3.1 0 4.3 1.2 1.2 3.1 1.2 4.3 0l22.5-22.5c1.2-1.2 1.2-3.1 0-4.3-1.1-1.2-3-1.2-4.2-.1zM450 123.9l-11.4 11.4c.3 2.3-.4 4.7-2.1 6.4-1.7 1.7-4.1 2.4-6.4 2.1l-1.1 1.1c-1.2 1.2-1.2 3.1 0 4.3 1.2 1.2 3.1 1.2 4.3 0l21-21c1.2-1.2 1.2-3.1 0-4.3-1.2-1.2-3.2-1.2-4.3 0z"/><ellipse transform="rotate(-45 431.088 136.318)" class="st0" cx="431.1" cy="136.3" rx="4.6" ry="4.6"/><path class="st0" d="M427.6 162.8L417 173.4c-1.2 1.2-3.1 1.2-4.3 0-1.2-1.2-1.2-3.1 0-4.3l10.6-10.6c1.2-1.2 3.1-1.2 4.3 0s1.1 3.1 0 4.3zM397.8 181.8H366c-1.7 0-3-1.4-3-3 0-1.7 1.4-3 3-3h31.9c1.7 0 3 1.4 3 3s-1.4 3-3.1 3zM352.3 181.8h-10.6c-1.7 0-3-1.4-3-3 0-1.7 1.4-3 3-3h10.6c1.7 0 3 1.4 3 3 .1 1.6-1.3 3-3 3zM499.4 142.3h-13.7c-1.7 0-3-1.4-3-3 0-1.7 1.4-3 3-3h13.7c1.7 0 3 1.4 3 3 .1 1.7-1.3 3-3 3zM519.2 142.3h-7.6c-1.7 0-3-1.4-3-3 0-1.7 1.4-3 3-3h7.6c1.7 0 3 1.4 3 3 0 1.7-1.4 3-3 3zM526.7 166.6h-31.9c-1.7 0-3-1.4-3-3 0-1.7 1.4-3 3-3h31.9c1.7 0 3 1.4 3 3 .1 1.6-1.3 3-3 3zM546.5 166.6h-6.1c-1.7 0-3-1.4-3-3 0-1.7 1.4-3 3-3h6.1c1.7 0 3 1.4 3 3s-1.4 3-3 3zM582.9 239.7c-3.2 0-6.3-1.3-8.6-3.6s-3.6-5.3-3.6-8.6 1.3-6.3 3.6-8.6c4.7-4.7 12.4-4.7 17.2 0 2.3 2.3 3.6 5.3 3.6 8.6s-1.3 6.3-3.6 8.6-5.4 3.6-8.6 3.6zm0-18.2c-1.6 0-3.1.6-4.3 1.8-1.1 1.1-1.8 2.7-1.8 4.3 0 1.6.6 3.1 1.8 4.3 2.3 2.3 6.3 2.3 8.6 0 1.1-1.1 1.8-2.7 1.8-4.3 0-1.6-.6-3.1-1.8-4.3-1.2-1.2-2.8-1.8-4.3-1.8z"/><path class="st0" d="M576.4 237c-.8 0-1.6-.3-2.1-.9L557.1 219c-1.2-1.2-1.2-3.1 0-4.3 1.2-1.2 3.1-1.2 4.3 0l17.2 17.2c1.2 1.2 1.2 3.1 0 4.3-.6.5-1.4.8-2.2.8zM589.3 224.1c-.8 0-1.6-.3-2.1-.9L570 206.1c-1.2-1.2-1.2-3.1 0-4.3 1.2-1.2 3.1-1.2 4.3 0l17.2 17.2c1.2 1.2 1.2 3.1 0 4.3-.6.5-1.4.8-2.2.8zM576.4 224.1c-.8 0-1.6-.3-2.1-.9L557.1 206c-1.2-1.2-1.2-3.1 0-4.3 1.2-1.2 3.1-1.2 4.3 0l17.2 17.2c1.2 1.2 1.2 3.1 0 4.3-.6.6-1.4.9-2.2.9zM315.9 104.4c-.8 0-1.5-.7-1.5-1.5v-4.6c0-.8.7-1.5 1.5-1.5s1.5.7 1.5 1.5v4.6c0 .8-.6 1.5-1.5 1.5zM312.9 107.5h-4.6c-.8 0-1.5-.7-1.5-1.5s.7-1.5 1.5-1.5h4.6c.8 0 1.5.7 1.5 1.5s-.7 1.5-1.5 1.5zM315.9 115c-.8 0-1.5-.7-1.5-1.5V109c0-.8.7-1.5 1.5-1.5s1.5.7 1.5 1.5v4.6c0 .8-.6 1.4-1.5 1.4zM323.5 107.5H319c-.8 0-1.5-.7-1.5-1.5s.7-1.5 1.5-1.5h4.6c.8 0 1.5.7 1.5 1.5-.1.8-.8 1.5-1.6 1.5zM37.5 190.5c-.4 0-.8-.1-1.1-.4-.6-.6-.6-1.6 0-2.1l2.1-2.1c.6-.6 1.6-.6 2.1 0 .6.6.6 1.6 0 2.1l-2.1 2.1c-.2.3-.6.4-1 .4zM33.2 190.5c-.4 0-.8-.1-1.1-.4L30 188c-.6-.6-.6-1.6 0-2.1.6-.6 1.6-.6 2.1 0l2.1 2.1c.6.6.6 1.6 0 2.1-.2.3-.6.4-1 .4zM31 196.9c-.4 0-.8-.1-1.1-.4-.6-.6-.6-1.6 0-2.1l2.1-2.1c.6-.6 1.6-.6 2.1 0 .6.6.6 1.6 0 2.1l-2.1 2.1c-.2.3-.6.4-1 .4zM39.6 196.9c-.4 0-.8-.1-1.1-.4l-2.1-2.1c-.6-.6-.6-1.6 0-2.1.6-.6 1.6-.6 2.1 0l2.1 2.1c.6.6.6 1.6 0 2.1-.2.3-.6.4-1 .4zM149.1 150.2h-1.5c-.8 0-1.5-.7-1.5-1.5s.7-1.5 1.5-1.5h1.5c.8 0 1.5.7 1.5 1.5s-.7 1.5-1.5 1.5zM144.5 147.1c-.8 0-1.5-.7-1.5-1.5v-1.5c0-.8.7-1.5 1.5-1.5s1.5.7 1.5 1.5v1.5c.1.9-.6 1.5-1.5 1.5zM141.5 150.2H140c-.8 0-1.5-.7-1.5-1.5s.7-1.5 1.5-1.5h1.5c.8 0 1.5.7 1.5 1.5s-.7 1.5-1.5 1.5zM144.5 154.7c-.8 0-1.5-.7-1.5-1.5v-1.5c0-.8.7-1.5 1.5-1.5s1.5.7 1.5 1.5v1.5c.1.8-.6 1.5-1.5 1.5z"/><g><path class="st0" d="M481.2 219.9h3v3h-3zM478.2 223h3v3h-3zM481.2 226h3v3h-3zM484.3 223h3v3h-3z"/></g><g><path class="st0" d="M288.6 160.8c-10 0-18.2-8.2-18.2-18.2s8.2-18.2 18.2-18.2 18.2 8.2 18.2 18.2-8.1 18.2-18.2 18.2zm0-30.3c-6.7 0-12.1 5.4-12.1 12.1 0 6.7 5.4 12.1 12.1 12.1s12.1-5.4 12.1-12.1c.1-6.7-5.4-12.1-12.1-12.1z"/><circle class="st0" cx="284.1" cy="136.5" r="3"/><circle class="st0" cx="299.2" cy="147.1" r="3"/><circle class="st0" cx="281.8" cy="147.9" r="5.4"/></g><g><path class="st0" d="M231 144.1h-28.8c-1.7 0-3-1.4-3-3 0-1.7 1.4-3 3-3H231c1.7 0 3 1.4 3 3 0 1.7-1.3 3-3 3z"/></g><g><path class="st0" d="M190 144.1h-6c-1.7 0-3-1.4-3-3 0-1.7 1.4-3 3-3h6.1c1.7 0 3 1.4 3 3 0 1.7-1.4 3-3.1 3z"/></g><g><path class="st0" d="M142.7 272.8c-.2 0-.5 0-.7-.1-1.6-.4-2.7-2-2.3-3.6.2-.8.3-1.6.3-2.4 0-5.9-4.8-10.6-10.6-10.6-4.7 0-8.9 3.2-10.2 7.7-.3 1-1 1.7-2 2.1-1 .3-2 .1-2.8-.5-1.4-1.1-3-1.7-4.7-1.7-3.7 0-7 2.8-7.5 6.5-.2 1.5-1.5 2.6-3 2.6H76.3c-1.7 0-3-1.4-3-3s1.4-3 3-3h20.5c1.9-5.3 7-9.1 12.9-9.1 1.8 0 3.5.3 5.1 1 2.9-5.2 8.5-8.6 14.6-8.6 9.2 0 16.7 7.5 16.7 16.7 0 1.2-.1 2.5-.4 3.7-.4 1.3-1.7 2.3-3 2.3z"/></g><g><path class="st0" d="M547.4 277.3c-.2 0-.5 0-.7-.1-1.6-.4-2.6-2-2.3-3.6.4-1.6.5-3.1.5-4.6 0-9.6-6.8-18-16.1-20l-4.5-.5c-7.5.1-14.4 4.2-17.9 10.8-.5.9-1.3 1.5-2.3 1.6-1 .1-2-.3-2.6-1-3-3.4-7.4-5.4-11.9-5.4-6 0-11.5 3.4-14.2 8.8-.4.9-1.3 1.5-2.3 1.6-1 .1-2-.2-2.6-.9-1.6-1.7-4.1-2.4-6.4-1.6-1 .4-2.2.1-3-.6-1.9-1.7-4.3-2.7-6.8-2.8l-4.7.9c-2.6 1.2-4.6 3.4-5.6 6.1-.3.9-1 1.5-1.8 1.8-.8.3-1.8.2-2.6-.2-1.2-.7-2.5-1-3.8-1-4.2 0-7.6 3.4-7.6 7.6 0 1.7-1.4 3-3 3h-37.9c-1.7 0-3-1.4-3-3s1.4-3 3-3h35.2c1.4-6.1 6.8-10.6 13.3-10.6 1.3 0 2.6.2 3.9.6 1.8-3 4.6-5.5 7.8-6.8.2-.1.4-.1.6-.2l5.3-1.1c.2 0 .4-.1.6-.1 3.6 0 7 1.1 9.9 3.3 2.8-.5 5.6-.1 8 1.2 4.1-5.6 10.6-9 17.8-9 4.9 0 9.7 1.7 13.5 4.7 5-6.7 12.8-10.8 21.3-10.8h.3l4.8.5h.3c12.2 2.6 21.1 13.5 21.1 26 0 2-.2 4-.7 6-.3 1.5-1.6 2.4-2.9 2.4z"/></g><g><circle class="st0" cx="390.2" cy="105.9" r="3"/></g><g><path class="st0" d="M525.2 121.1c-.8 0-1.5-.7-1.5-1.5s.7-1.5 1.5-1.5c10.4 0 10.6-10.2 10.6-10.6 0-.8.7-1.5 1.5-1.5s1.5.7 1.5 1.5c.1 4.7-2.8 13.6-13.6 13.6z"/><path class="st0" d="M549.5 121.1c-10.8 0-13.7-8.9-13.7-13.7 0-.8.7-1.5 1.5-1.5s1.5.7 1.5 1.5c0 .4.2 10.6 10.6 10.6.8 0 1.5.7 1.5 1.5.1.9-.6 1.6-1.4 1.6zm-10.6-13.6z"/><path class="st0" d="M537.4 133.2c-.8 0-1.5-.7-1.5-1.5 0-4.7 2.9-13.7 13.7-13.7.8 0 1.5.7 1.5 1.5s-.7 1.5-1.5 1.5c-10.4 0-10.6 10.2-10.6 10.6-.1 1-.8 1.6-1.6 1.6z"/><path class="st0" d="M537.4 133.2c-.8 0-1.5-.7-1.5-1.5 0-.4-.2-10.6-10.6-10.6-.8 0-1.5-.7-1.5-1.5s.7-1.5 1.5-1.5c10.8 0 13.7 8.9 13.7 13.7-.1.8-.8 1.4-1.6 1.4z"/></g><g><path class="st0" d="M350.8 57.4c-.8 0-1.5-.7-1.5-1.5s.7-1.5 1.5-1.5c10.4 0 10.6-10.2 10.6-10.6 0-.8.7-1.5 1.5-1.5s1.5.7 1.5 1.5c.1 4.7-2.8 13.6-13.6 13.6z"/><path class="st0" d="M375.1 57.4c-10.8 0-13.7-8.9-13.7-13.7 0-.8.7-1.5 1.5-1.5s1.5.7 1.5 1.5c0 .4.2 10.6 10.6 10.6.8 0 1.5.7 1.5 1.5.1.9-.6 1.6-1.4 1.6zm-10.6-13.6z"/><path class="st0" d="M362.9 69.5c-.8 0-1.5-.7-1.5-1.5 0-4.7 2.9-13.7 13.7-13.7.8 0 1.5.7 1.5 1.5s-.7 1.5-1.5 1.5c-10.4 0-10.6 10.2-10.6 10.6 0 1-.7 1.6-1.6 1.6z"/><path class="st0" d="M362.9 69.5c-.8 0-1.5-.7-1.5-1.5 0-.4-.2-10.6-10.6-10.6-.8 0-1.5-.7-1.5-1.5s.7-1.5 1.5-1.5c10.8 0 13.7 8.9 13.7 13.7 0 .8-.7 1.4-1.6 1.4z"/></g><g><path class="st0" d="M73.3 130.2c-.8 0-1.5-.7-1.5-1.5s.7-1.5 1.5-1.5c10.4 0 10.6-10.2 10.6-10.6 0-.8.7-1.5 1.5-1.5s1.5.7 1.5 1.5c0 4.7-2.9 13.6-13.6 13.6z"/><path class="st0" d="M97.5 130.2c-10.8 0-13.7-8.9-13.7-13.7 0-.8.7-1.5 1.5-1.5s1.5.7 1.5 1.5c0 .4.2 10.6 10.6 10.6.8 0 1.5.7 1.5 1.5.1.9-.5 1.6-1.4 1.6zm-10.6-13.6z"/><path class="st0" d="M85.4 142.3c-.8 0-1.5-.7-1.5-1.5 0-4.7 2.9-13.7 13.7-13.7.8 0 1.5.7 1.5 1.5s-.7 1.5-1.5 1.5c-10.4 0-10.6 10.2-10.6 10.6-.1 1-.8 1.6-1.6 1.6z"/><path class="st0" d="M85.4 142.3c-.8 0-1.5-.7-1.5-1.5 0-.4-.2-10.6-10.6-10.6-.8 0-1.5-.7-1.5-1.5s.7-1.5 1.5-1.5c10.8 0 13.7 8.9 13.7 13.7-.1.8-.8 1.4-1.6 1.4z"/></g><g><path class="st0" d="M137 68c-.8 0-1.5-.7-1.5-1.5v-7.6c0-.8.7-1.5 1.5-1.5s1.5.7 1.5 1.5v7.6c0 .8-.7 1.5-1.5 1.5zM137 81.7c-.8 0-1.5-.7-1.5-1.5v-7.6c0-.8.7-1.5 1.5-1.5s1.5.7 1.5 1.5v7.6c0 .8-.7 1.5-1.5 1.5zM133.9 71.1h-4.6c-.8 0-1.5-.7-1.5-1.5s.7-1.5 1.5-1.5h4.6c.8 0 1.5.7 1.5 1.5s-.6 1.5-1.5 1.5zM144.5 71.1H140c-.8 0-1.5-.7-1.5-1.5s.7-1.5 1.5-1.5h4.6c.8 0 1.5.7 1.5 1.5s-.7 1.5-1.6 1.5z"/></g><g><path class="st0" d="M220.4 99.9c-10.9 0-19.7-8.8-19.7-19.7s8.8-19.7 19.7-19.7c10.9 0 19.7 8.8 19.7 19.7s-8.9 19.7-19.7 19.7zm0-33.4c-7.5 0-13.7 6.1-13.7 13.7s6.1 13.7 13.7 13.7c7.5 0 13.7-6.1 13.7-13.7s-6.2-13.7-13.7-13.7z"/></g><g><path class="st0" d="M220.4 116.6c-20.1 0-36.4-16.3-36.4-36.4s16.3-36.4 36.4-36.4c20.1 0 36.4 16.3 36.4 36.4s-16.4 36.4-36.4 36.4zm0-66.8c-16.7 0-30.3 13.6-30.3 30.3 0 16.7 13.6 30.3 30.3 30.3 16.7 0 30.3-13.6 30.3-30.3 0-16.7-13.6-30.3-30.3-30.3z"/></g><g><circle class="st0" cx="253.7" cy="80.2" r="9.1"/></g><g><path class="st0" d="M221.1 74.2c-3.9 0-6.8-2-6.8-4.6 0-2.6 2.9-4.6 6.8-4.6s6.8 2 6.8 4.6c.1 2.6-2.9 4.6-6.8 4.6zm0-6.2c-2.3 0-3.8 1-3.8 1.5s1.5 1.5 3.8 1.5 3.8-1 3.8-1.5-1.5-1.5-3.8-1.5z"/></g><g><path class="st0" d="M209 85.4c-.2 0-.4 0-.6-.1-2.1-.5-3.2-3.3-2.4-6.7.3-1.4.9-2.7 1.6-3.6 1-1.2 2.2-1.7 3.4-1.5 2.1.5 3.2 3.3 2.4 6.7-.3 1.4-.9 2.7-1.6 3.6-.8 1-1.8 1.6-2.8 1.6zm1.4-8.9c-.4.3-1 1.2-1.4 2.7-.3 1.5-.1 2.6.1 3 .4-.3 1-1.2 1.4-2.7.3-1.5.1-2.6-.1-3z"/></g><g><path class="st0" d="M161.2 104.4h-34.9c-1.7 0-3-1.4-3-3 0-1.7 1.4-3 3-3h34.9c1.7 0 3 1.4 3 3 .1 1.7-1.3 3-3 3z"/></g><g><path class="st0" d="M114.2 104.4h-7.6c-1.7 0-3-1.4-3-3 0-1.7 1.4-3 3-3h7.6c1.7 0 3 1.4 3 3 0 1.7-1.3 3-3 3z"/></g><g><path class="st1" d="M523.7 407.8H73.3c-1.7 0-3-1.4-3-3s1.4-3 3-3h450.5c1.7 0 3 1.4 3 3s-1.4 3-3.1 3zM59.6 407.8h-9.1c-1.7 0-3-1.4-3-3s1.4-3 3-3h9.1c1.7 0 3 1.4 3 3s-1.3 3-3 3zM38.4 407.8h-9.1c-1.7 0-3-1.4-3-3s1.4-3 3-3h9.1c1.7 0 3 1.4 3 3s-1.4 3-3 3zM566.2 407.8h-9.1c-1.7 0-3-1.4-3-3s1.4-3 3-3h9.1c1.7 0 3 1.4 3 3s-1.3 3-3 3zM544.9 407.8h-9.1c-1.7 0-3-1.4-3-3s1.4-3 3-3h9.1c1.7 0 3 1.4 3 3s-1.3 3-3 3z"/></g><g><path class="st1" d="M317.4 298.6H278c-1.7 0-3-1.4-3-3v-78.9c0-10.9 9.1-37.9 22.8-37.9 13.7 0 22.8 27 22.8 37.9v78.9c-.1 1.6-1.5 3-3.2 3zm-36.4-6.1h33.4v-75.8c0-11.1-8.8-31.9-16.7-31.9-7.8 0-16.7 20.8-16.7 31.9v75.8zM285.6 300.1h24.3v6.1h-24.3zM281 307.7h33.4v6.1H281zM278 315.2h39.4v6.1H278z"/><path class="st1" d="M278 295.5h-36.4c-1.7 0-3-1.4-3-3v-16.7c0-.8.3-1.6 1-2.2l36.4-34.1c.9-.8 2.2-1.1 3.3-.6 1.1.5 1.8 1.6 1.8 2.8v50.8c-.1 1.7-1.4 3-3.1 3zm-33.4-6H275v-40.8l-30.3 28.4v12.4zM353.8 295.5h-36.4c-1.7 0-3-1.4-3-3v-50.8c0-1.2.7-2.3 1.8-2.8s2.4-.3 3.3.6l36.4 34.1c.6.6 1 1.4 1 2.2v16.7c0 1.7-1.4 3-3.1 3zm-33.3-6h30.3v-12.3l-30.3-28.4v40.7z"/><path class="st1" d="M253.7 301.6c-1.7 0-3-1.4-3-3v-19.7c0-1.7 1.4-3 3-3 1.7 0 3 1.4 3 3v19.7c.1 1.6-1.3 3-3 3zM265.9 301.6c-1.7 0-3-1.4-3-3v-19.7c0-1.7 1.4-3 3-3s3 1.4 3 3v19.7c0 1.6-1.4 3-3 3zM341.7 301.6c-1.7 0-3-1.4-3-3v-19.7c0-1.7 1.4-3 3-3s3 1.4 3 3v19.7c0 1.6-1.3 3-3 3zM329.6 301.6c-1.7 0-3-1.4-3-3v-19.7c0-1.7 1.4-3 3-3 1.7 0 3 1.4 3 3v19.7c0 1.6-1.3 3-3 3zM317.4 274.3H278c-1.7 0-3-1.4-3-3s1.4-3 3-3h39.4c1.7 0 3 1.4 3 3s-1.3 3-3 3zM317.4 286.4H278c-1.7 0-3-1.4-3-3s1.4-3 3-3h39.4c1.7 0 3 1.4 3 3s-1.3 3-3 3zM309.9 233.3h-24.3c-1.7 0-3-1.4-3-3v-15.2c0-1.7 1.4-3 3-3h24.3c1.7 0 3 1.4 3 3v15.2c0 1.7-1.4 3-3 3zm-21.3-6h18.2v-9.1h-18.2v9.1z"/><path class="st1" d="M285.6 265.2h6.1v6.1h-6.1zM294.7 265.2h6.1v6.1h-6.1zM303.8 265.2h6.1v6.1h-6.1zM293.2 225.8c-.4 0-.8-.1-1.1-.4-.6-.6-.6-1.6 0-2.1l3-3c.6-.6 1.6-.6 2.1 0 .6.6.6 1.6 0 2.1l-3 3c-.2.2-.6.4-1 .4zM302.3 224.2c-.4 0-.8-.1-1.1-.4-.6-.6-.6-1.6 0-2.1l1.5-1.5c.6-.6 1.6-.6 2.1 0 .6.6.6 1.6 0 2.1l-1.5 1.5c-.2.3-.6.4-1 .4z"/></g><g><path class="st1" d="M297.2 346.3c-1.7 0-3-1.4-3-3 0-7.1-5.8-12.9-12.9-12.9-3.6 0-7 1.5-9.4 4.1-.7.7-1.7 1.1-2.7.9-1-.2-1.9-.8-2.3-1.8-2.9-6.6-9.4-10.9-16.7-10.9-10 0-18.2 8.2-18.2 18.2 0 1.7-1.4 3-3 3-1.7 0-3-1.4-3-3 0-13.4 10.9-24.3 24.3-24.3 8.3 0 15.9 4.2 20.3 11 3.2-2.2 6.9-3.4 10.8-3.4 10.5 0 19 8.5 19 19-.2 1.8-1.6 3.1-3.2 3.1z"/><path class="st1" d="M240.3 388c-1 0-2-.5-2.5-1.4-3-4.6-4.6-9.9-4.6-15.3 0-15.5 12.6-28.1 28.1-28.1 7.5 0 14.5 2.9 19.8 8.2 1.2 1.2 1.2 3.1 0 4.3-1.2 1.2-3.1 1.2-4.3 0-4.2-4.2-9.7-6.4-15.6-6.4-12.1 0-22 9.9-22 22 0 4.3 1.2 8.4 3.6 12 .9 1.4.5 3.3-.9 4.2-.5.4-1 .5-1.6.5zM193 366c-.8 0-1.6-.3-2.1-.9-1.2-1.2-1.2-3.1 0-4.3 5.3-5.3 12.3-8.2 19.8-8.2 3.8 0 7.6.8 11.1 2.3 1.5.7 2.2 2.5 1.6 4-.7 1.5-2.5 2.2-4 1.6-2.7-1.2-5.7-1.8-8.7-1.8-5.9 0-11.4 2.3-15.6 6.4-.6.6-1.3.9-2.1.9zM189.4 341.4c-.7 0-1.3-.2-1.9-.7-1.5-1.2-3.2-2.2-4.9-2.9-1.5-.7-2.2-2.5-1.6-4 .7-1.5 2.5-2.2 4-1.6 1.4.6 2.8 1.3 4.1 2.2 4.4-3.8 10.1-6 15.9-6 1.7 0 3 1.4 3 3s-1.4 3-3 3c-5.1 0-9.9 2.1-13.4 5.9-.6.8-1.4 1.1-2.2 1.1zM311.9 345c-1 0-2-.5-2.6-1.4-1-1.7-1.6-3.6-1.6-5.6 0-5.9 4.8-10.6 10.6-10.6 1.9 0 3.7.5 5.3 1.4 1.5.8 1.9 2.7 1.1 4.1-.8 1.5-2.7 1.9-4.1 1.1-.7-.4-1.5-.6-2.3-.6-2.5 0-4.6 2-4.6 4.6 0 .8.2 1.7.7 2.4.9 1.4.4 3.3-1 4.2-.4.3-.9.4-1.5.4zM355.2 337.9c-.7 0-1.3-.2-1.9-.7-1.3-1-1.5-2.9-.5-4.3 1.3-1.6 2-3.6 2-5.6 0-5-4.1-9.1-9.1-9.1s-9.1 4.1-9.1 9.1c0 1.7-1.4 3-3 3-1.7 0-3-1.4-3-3 0-8.4 6.8-15.2 15.2-15.2 8.4 0 15.2 6.8 15.2 15.2 0 3.4-1.1 6.7-3.3 9.4-.7.8-1.6 1.2-2.5 1.2zM160.8 383.5c-1.6 0-2.9-1.3-3-2.9-.2-4.4 1.4-8.7 4.6-11.7 4.3-4.1 10.6-5.4 16.1-3.2 1.6.6 2.3 2.4 1.7 3.9-.6 1.6-2.4 2.3-3.9 1.7-3.3-1.3-7.1-.6-9.7 1.9-1.9 1.8-2.9 4.4-2.8 7 .1 1.7-1.2 3.1-2.9 3.2 0 .1-.1.1-.1.1zM390.1 392.9h-.4c-1.7-.2-2.8-1.8-2.6-3.4 1.9-13.7-7.7-26.3-21.4-28.2-9.1-1.2-18.1 2.6-23.5 10-1 1.3-2.9 1.6-4.2.6-1.3-1-1.6-2.9-.6-4.2 6.8-9.2 18-13.9 29.2-12.4 17 2.3 28.9 18 26.6 35-.3 1.5-1.6 2.6-3.1 2.6zM270.8 396.1c-.3 0-.6 0-.9-.1-1.6-.5-2.5-2.2-2-3.8 3.2-10.6 12.8-17.8 24-17.8 3.6 0 7.1.8 10.4 2.3 3.1-5.9 9.3-9.8 16.2-9.8 5.5 0 10.6 2.4 14.1 6.7 1.1 1.3.9 3.2-.4 4.3-1.3 1.1-3.2.9-4.3-.4-2.3-2.8-5.7-4.4-9.4-4.4-5.4 0-10.2 3.7-11.7 8.9-.3.9-.9 1.7-1.8 2-.9.3-1.9.2-2.7-.3-3.1-2-6.6-3-10.3-3-8.3 0-15.8 5.5-18.2 13.5-.5 1-1.7 1.9-3 1.9zM480.3 398c-.8 0-1.6-.3-2.2-1-1.1-1.2-1.1-3.1.2-4.3 4.5-4.2 7-10 7-16.1 0-12.1-9.9-22-22-22-1.7 0-3-1.4-3-3 0-1.7 1.4-3 3-3 15.5 0 28.1 12.6 28.1 28.1 0 7.8-3.3 15.3-9 20.6-.7.5-1.4.7-2.1.7z"/><path class="st1" d="M220.2 331.1c-.2 0-.4 0-.6-.1-1.9-.4-3.9-.6-5.8-.6h-.8c-1.1 0-2.1-.5-2.6-1.4-5.7-8.9-14.9-15.2-25.2-17.5-.5-.1-1-.4-1.4-.7-8.6-7.9-19.7-12.3-31.4-12.3-18.3 0-34.9 10.8-42.3 27.6-.7 1.5-2.5 2.2-4 1.6-1.5-.7-2.2-2.5-1.5-4 8.4-19 27.2-31.2 47.9-31.2 12.9 0 25.3 4.7 34.9 13.4 10.9 2.6 20.7 9.3 27.2 18.5 2.1 0 4.2.3 6.3.7 1.6.3 2.7 1.9 2.4 3.6-.5 1.4-1.7 2.4-3.1 2.4z"/><path class="st1" d="M136.2 380.5c-.8 0-1.7-.3-2.3-1-5.7-6.4-8.9-14.7-8.9-23.3 0-19.2 15.6-34.9 34.9-34.9 5.5 0 10.8 1.3 15.8 3.8 1.5.8 2.1 2.6 1.3 4.1-.8 1.5-2.6 2.1-4.1 1.3-4.1-2.1-8.5-3.1-13-3.1-15.9 0-28.8 12.9-28.8 28.8 0 7.1 2.6 13.9 7.3 19.2 1.1 1.2 1 3.2-.2 4.3-.6.5-1.3.8-2 .8zM475.5 339.2c-1.3 0-2.5-.9-2.9-2.2-.5-1.7-1.3-3.4-2.3-4.8-.7-.9-.8-2.1-.3-3.1 1.1-2.2 1.6-4.6 1.6-7 0-8.8-7.1-15.9-15.9-15.9-7.9 0-14.5 5.6-15.7 13.4-.1.8-.6 1.5-1.3 2-.7.5-1.5.6-2.3.5-2.4-.5-4.8-.7-7.2-.7-10.4 0-20.3 4.5-27.2 12.2-1.1 1.3-3 1.4-4.3.3-1.3-1.1-1.4-3-.3-4.3 8.1-9.1 19.6-14.3 31.8-14.3 1.8 0 3.7.1 5.5.4 2.8-9.2 11.2-15.5 21-15.5 12.1 0 22 9.9 22 22 0 2.8-.5 5.5-1.5 8 1 1.7 1.8 3.4 2.3 5.3.4 1.6-.5 3.3-2.1 3.7h-.9z"/><path class="st1" d="M456.4 347.7c-.4 0-.9-.1-1.3-.3-5-2.4-10.3-3.6-15.9-3.6h-1.7c-1 0-2-.4-2.6-1.3-2.8-4-7.5-6.4-12.3-6.4-1.4 0-2.7.2-4 .5-1.6.5-3.3-.5-3.7-2.1-.4-1.6.5-3.3 2.1-3.7 1.8-.5 3.7-.8 5.7-.8 6.3 0 12.2 2.8 16.2 7.6 6.6-.1 13 1.4 19 4.2 1.5.7 2.1 2.5 1.4 4.1-.7 1.1-1.8 1.8-2.9 1.8zM436.7 374.4c-.8 0-1.6-.3-2.2-1-7-7.4-16.4-11.5-26.6-11.5-3.3 0-6.7.5-9.8 1.3-1.6.5-3.3-.5-3.7-2.1-.5-1.6.5-3.3 2.1-3.7 3.7-1 7.6-1.6 11.5-1.6 11.7 0 23 4.9 31 13.5 1.1 1.2 1.1 3.1-.1 4.3-.7.5-1.4.8-2.2.8zM373 333.1c-.8 0-1.6-.3-2.2-1-1.1-1.2-1.1-3.1.1-4.3 7.9-7.4 18.2-11.5 29-11.5 4.8 0 9.5.8 14 2.4 1.6.6 2.4 2.3 1.9 3.9-.6 1.6-2.3 2.4-3.9 1.9-3.8-1.3-7.9-2-12-2-9.3 0-18.1 3.5-24.9 9.8-.5.5-1.3.8-2 .8z"/><g><path class="st1" d="M73.3 379.2c-.7 0-1.5-.3-2-.8-11.1-10.2-15.4-25.5-11.3-40 4.6-16.2 19-27.6 35.8-28.5 1.7-.1 3.1 1.2 3.2 2.9.1 1.7-1.2 3.1-2.9 3.2-14.2.8-26.4 10.4-30.3 24.1-3.5 12.3.1 25.2 9.5 33.8 1.2 1.1 1.3 3 .2 4.3-.6.7-1.4 1-2.2 1z"/></g><g><path class="st1" d="M103.7 378.6c-.9 0-1.9-.4-2.5-1.2-1.4-2-2.2-4.3-2.2-6.7 0-6.3 5.1-11.4 11.4-11.4 2.2 0 4.3.6 6.1 1.8 1.4.9 1.8 2.8.9 4.2-.9 1.4-2.8 1.8-4.2.9-.8-.5-1.8-.8-2.8-.8-2.9 0-5.3 2.4-5.3 5.3 0 1.1.4 2.2 1 3.1 1 1.4.7 3.2-.7 4.2-.5.4-1.1.6-1.7.6z"/></g><g><path class="st1" d="M523.4 385.6c-.5 0-1-.1-1.4-.4-1.5-.8-2-2.6-1.2-4.1 1.1-2.1 2-4.2 2.8-6.5 3.3-10 2.4-20.7-2.4-30.1-4.8-9.4-12.9-16.4-22.9-19.6-1.6-.5-2.5-2.2-1.9-3.8.5-1.6 2.2-2.5 3.8-1.9 11.6 3.8 21 11.8 26.5 22.6s6.5 23.2 2.7 34.7c-.8 2.6-1.9 5.1-3.2 7.5-.7 1-1.7 1.6-2.8 1.6z"/></g></g></svg>